/* XPM */
static char * P3_xpm[] = {
"64 64 289 2",
"  	c None",
". 	c #E4B159",
"+ 	c #DEA25C",
"@ 	c #D9945F",
"# 	c #9E7466",
"$ 	c #DB995E",
"% 	c #FAE249",
"& 	c #E0A65B",
"* 	c #EFCB52",
"= 	c #DA965F",
"- 	c #D9955F",
"; 	c #DDA05D",
"> 	c #EEC952",
", 	c #F3D44F",
"' 	c #DFA562",
") 	c #F7DC50",
"! 	c #FEF4C1",
"~ 	c #E7BA5E",
"{ 	c #79514B",
"] 	c #512D37",
"^ 	c #D8935F",
"/ 	c #E7B957",
"( 	c #FFED4D",
"_ 	c #FEEB46",
": 	c #DB985E",
"< 	c #232130",
"[ 	c #AF7363",
"} 	c #AC5353",
"| 	c #4B2A36",
"1 	c #161C2E",
"2 	c #986849",
"3 	c #FFF39F",
"4 	c #FFEF75",
"5 	c #E4B556",
"6 	c #392C32",
"7 	c #7C534C",
"8 	c #BE7264",
"9 	c #C17968",
"0 	c #91555B",
"a 	c #36263B",
"b 	c #4C6F3E",
"c 	c #1C272F",
"d 	c #996A49",
"e 	c #F7DC4C",
"f 	c #FFF7C8",
"g 	c #FBE991",
"h 	c #AA784D",
"i 	c #4D6E3E",
"j 	c #5F9149",
"k 	c #18272F",
"l 	c #A36C5D",
"m 	c #B85E59",
"n 	c #AA6B65",
"o 	c #613953",
"p 	c #723840",
"q 	c #86424C",
"r 	c #39273D",
"s 	c #3D5838",
"t 	c #73B354",
"u 	c #C6995B",
"v 	c #FCED7D",
"w 	c #FFF8D4",
"x 	c #E8C15C",
"y 	c #62453A",
"z 	c #577D43",
"A 	c #92D261",
"B 	c #48A44D",
"C 	c #635441",
"D 	c #AE5255",
"E 	c #934958",
"F 	c #A24C4F",
"G 	c #A75056",
"H 	c #764059",
"I 	c #57344F",
"J 	c #261F31",
"K 	c #4C6F3F",
"L 	c #45994A",
"M 	c #AA936E",
"N 	c #E7D49E",
"O 	c #EFE0AA",
"P 	c #AC966F",
"Q 	c #171D2E",
"R 	c #73A550",
"S 	c #6EC259",
"T 	c #3D925D",
"U 	c #754E4E",
"V 	c #AF5255",
"W 	c #8C4759",
"X 	c #6E3E5A",
"Y 	c #763B45",
"Z 	c #97484B",
"` 	c #964A57",
" .	c #204835",
"..	c #877459",
"+.	c #E1CC99",
"@.	c #B19E78",
"#.	c #BCA980",
"$.	c #223030",
"%.	c #74BD58",
"&.	c #3BA059",
"*.	c #456A63",
"=.	c #B35555",
"-.	c #B45455",
";.	c #B35455",
">.	c #A14E57",
",.	c #81445A",
"'.	c #6A3D5B",
").	c #693D5B",
"!.	c #412A41",
"~.	c #816F56",
"{.	c #71614E",
"].	c #806D55",
"^.	c #71624F",
"/.	c #282331",
"(.	c #654443",
"_.	c #529549",
":.	c #3D925F",
"<.	c #375955",
"[.	c #A24C4E",
"}.	c #9C4C58",
"|.	c #804359",
"1.	c #633A57",
"2.	c #492E46",
"3.	c #413242",
"4.	c #413542",
"5.	c #2B2E36",
"6.	c #161D2E",
"7.	c #40383F",
"8.	c #584A4C",
"9.	c #1C1F30",
"0.	c #79524B",
"a.	c #C07A68",
"b.	c #7B704F",
"c.	c #796B61",
"d.	c #82494B",
"e.	c #844355",
"f.	c #38273D",
"g.	c #273F42",
"h.	c #297C41",
"i.	c #35A74D",
"j.	c #3BB151",
"k.	c #7CC75B",
"l.	c #549649",
"m.	c #182B2F",
"n.	c #594B4D",
"o.	c #937869",
"p.	c #272632",
"q.	c #7B534C",
"r.	c #C27B69",
"s.	c #C07666",
"t.	c #BD6C61",
"u.	c #B65655",
"v.	c #AB5051",
"w.	c #393E45",
"x.	c #2F504E",
"y.	c #407367",
"z.	c #38B052",
"A.	c #38B151",
"B.	c #38B050",
"C.	c #64BE57",
"D.	c #8CD060",
"E.	c #69A850",
"F.	c #183030",
"G.	c #524649",
"H.	c #8B7265",
"I.	c #4E373B",
"J.	c #B36D60",
"K.	c #B85C58",
"L.	c #B65555",
"M.	c #98484B",
"N.	c #182231",
"O.	c #335854",
"P.	c #417168",
"Q.	c #3B7F5E",
"R.	c #23603B",
"S.	c #182C30",
"T.	c #22633A",
"U.	c #318B45",
"V.	c #369F4B",
"W.	c #329C4A",
"X.	c #17262F",
"Y.	c #2F3336",
"Z.	c #41393F",
"`.	c #225C38",
" +	c #1C1D30",
".+	c #58334B",
"++	c #834251",
"@+	c #A34E57",
"#+	c #AA5156",
"$+	c #864455",
"%+	c #2C2437",
"&+	c #3A645E",
"*+	c #3E6B63",
"=+	c #3D6A63",
"-+	c #335754",
";+	c #17242F",
">+	c #215E38",
",+	c #7AB756",
"'+	c #2C7E41",
")+	c #2A8142",
"!+	c #292030",
"~+	c #A14C51",
"{+	c #A14C4E",
"]+	c #B55555",
"^+	c #AE5256",
"/+	c #703E56",
"(+	c #333741",
"_+	c #3D6A62",
":+	c #417067",
"<+	c #2A4848",
"[+	c #4CB553",
"}+	c #7EC95C",
"|+	c #3F773F",
"1+	c #17272F",
"2+	c #171C2E",
"3+	c #4C2935",
"4+	c #A24E57",
"5+	c #75405A",
"6+	c #683C5A",
"7+	c #52354D",
"8+	c #4A6160",
"9+	c #41605D",
"0+	c #50314B",
"a+	c #312439",
"b+	c #329D4A",
"c+	c #37AF50",
"d+	c #60353C",
"e+	c #824245",
"f+	c #723C4E",
"g+	c #623A57",
"h+	c #4A3148",
"i+	c #17222F",
"j+	c #17292F",
"k+	c #1D2C31",
"l+	c #292834",
"m+	c #2C2A33",
"n+	c #8E7761",
"o+	c #9F8667",
"p+	c #A08768",
"q+	c #917962",
"r+	c #AE946D",
"s+	c #7D6A59",
"t+	c #5B4B4B",
"u+	c #4E4144",
"v+	c #504343",
"w+	c #7C655B",
"x+	c #604F4B",
"y+	c #635250",
"z+	c #276C3C",
"A+	c #26703D",
"B+	c #645350",
"C+	c #544746",
"D+	c #332438",
"E+	c #5B354F",
"F+	c #4E3047",
"G+	c #493344",
"H+	c #483144",
"I+	c #4B3544",
"J+	c #463043",
"K+	c #554448",
"L+	c #4D4144",
"M+	c #3F363B",
"N+	c #5A4C4C",
"O+	c #3D353B",
"P+	c #1E2130",
"Q+	c #256F3D",
"R+	c #2F9447",
"S+	c #202130",
"T+	c #201E2F",
"U+	c #95464A",
"V+	c #B25354",
"W+	c #AC5155",
"X+	c #9F4D56",
"Y+	c #7E4359",
"Z+	c #613956",
"`+	c #433241",
" @	c #725E59",
".@	c #1E2030",
"+@	c #215C38",
"@@	c #1D4C35",
"#@	c #2E2130",
"$@	c #281F30",
"%@	c #3B273C",
"&@	c #422A42",
"*@	c #202031",
"=@	c #725D55",
"-@	c #352F39",
";@	c #4C4041",
">@	c #685650",
"                                                                                                                                ",
"                                                                                                                                ",
"                                                                                                                                ",
"                                                                                                                                ",
"                                                                                                                                ",
"                                                                                                                                ",
"                                                                                                                                ",
"                                                                                                                                ",
"                                                                                                                                ",
"                                                                                                                                ",
"                                                                                                                                ",
"                                                                                                                                ",
"                                                                                                                                ",
"                                                                                                                                ",
"                                                                                                                                ",
"                                                                                                                                ",
"                                                                                                                                ",
"                                    . + @   # #                                                                                 ",
"                                  $ % &                                                                                         ",
"                                    *                                                                                           ",
"                                    = - = @ @                                                                                   ",
"                                  @ @ ; > , ' @ @                                                                               ",
"                                      @ = ) ! ~ @         { ]                                                                   ",
"                                        ^ / ( _ :       < [ } | 1                                                               ",
"                                        2 / 3 4 5 6     7 8 9 0 a 1       b c                                                   ",
"                                        d e f g h i j k l m n o p q r 1 s t                                                     ",
"                                        u v w x y z A B C D E F G H I J K L                                                     ",
"                                        M N O P   Q R S T U V W X Y Z ` I  .                                                    ",
"                                        ..+.@.#.    $.%.&.*.=.-.;.>.,.'.).!.                                                    ",
"                                        ~.{.].^.  /.(._.:.<.[.}.|.1.2.3.4.5.6.                                                  ",
"                                        1 7.8.9.  0.a.b.c.d.-.e.f.g.h.i.j.k.l.m.                                                ",
"                                          n.o.p.  q.r.s.t.u.v.w.x.y.z.A.B.C.D.E.F.                                              ",
"                                          G.H.p.  I.J.K.L.L.M.N.O.P.Q.R.S.T.U.V.W.X.                                            ",
"                                          Y.Z.`.   +.+++@+#+$+%+&+P.*+=+-+    ;+>+;+                                            ",
"                                        ;+,+R '+)+!+~+{+-.]+^+/+(+_+P.:+<+                                                      ",
"                                        F.[+}+|+1+2+3+M.L.L.4+5+6+7+8+9+0+a+                                                    ",
"                                          b+c+>+1 Q d+e+M.M.f+1.6+6+g+h+1.2.i+                                                  ",
"                                          j+k+l+  m+n+o+p+q+r+s+t+u+v+w+x+y+z+A+                                                ",
"                                          1 B+C+  D+E+F+G+H+I+J+K+L+M+N+O+P+Q+R+                                                ",
"                                            S+  T+U+V+W+X+Y+).).Z+`+ @M+ @.@+@@@                                                ",
"                                                    #@$@!+%@&@!.*@=@-@;@>@1                                                     ",
"                                                      1                 1                                                       ",
"                                                    1                   1                                                       ",
"                                                                                                                                ",
"                                                                                                                                ",
"                                                                                                                                ",
"                                                                                                                                ",
"                                                                                                                                ",
"                                                                                                                                ",
"                                                                                                                                ",
"                                                                                                                                ",
"                                                                                                                                ",
"                                                                                                                                ",
"                                                                                                                                ",
"                                                                                                                                ",
"                                                                                                                                ",
"                                                                                                                                ",
"                                                                                                                                ",
"                                                                                                                                ",
"                                                                                                                                ",
"                                                                                                                                ",
"                                                                                                                                ",
"                                                                                                                                ",
"                                                                                                                                "};
