/* XPM */
static char * P4_xpm[] = {
"64 64 280 2",
"  	c None",
". 	c #9E7466",
"+ 	c #DEA35C",
"@ 	c #E2AE5A",
"# 	c #E2AD5A",
"$ 	c #EBC354",
"% 	c #D9945F",
"& 	c #DA965F",
"* 	c #E7B857",
"= 	c #F3D44F",
"- 	c #DDA05D",
"; 	c #E7B957",
"> 	c #F3D54E",
", 	c #FEEC45",
"' 	c #F7DC4C",
") 	c #D9955F",
"! 	c #EAC155",
"~ 	c #E8BC56",
"{ 	c #FEEA45",
"] 	c #DA975E",
"^ 	c #4A3539",
"/ 	c #302532",
"( 	c #D7935E",
"_ 	c #EBC254",
": 	c #F7DD4B",
"< 	c #DA985E",
"[ 	c #7B524C",
"} 	c #B0635B",
"| 	c #50373B",
"1 	c #A06D4B",
"2 	c #FFF18F",
"3 	c #FAE449",
"4 	c #B77F52",
"5 	c #2A2431",
"6 	c #AC6E60",
"7 	c #BF7264",
"8 	c #9E6460",
"9 	c #38263C",
"0 	c #161C2E",
"a 	c #608A47",
"b 	c #AB764E",
"c 	c #F7DD57",
"d 	c #FFFAE0",
"e 	c #EECB59",
"f 	c #73543F",
"g 	c #4C6F3E",
"h 	c #78514B",
"i 	c #BC695F",
"j 	c #BB7869",
"k 	c #794A5D",
"l 	c #4D2F46",
"m 	c #60323F",
"n 	c #2D2237",
"o 	c #212E30",
"p 	c #5D8F48",
"q 	c #7A563F",
"r 	c #EDCB54",
"s 	c #FFF5B9",
"t 	c #FBECB6",
"u 	c #B78052",
"v 	c #2B3431",
"w 	c #8BCC5E",
"x 	c #60A44E",
"y 	c #51543F",
"z 	c #B7605A",
"A 	c #8E4F5C",
"B 	c #7E3F4E",
"C 	c #99494F",
"D 	c #77415A",
"E 	c #673C5A",
"F 	c #37263B",
"G 	c #70A24F",
"H 	c #417A40",
"I 	c #876E52",
"J 	c #E8D597",
"K 	c #F4E9B9",
"L 	c #DEC781",
"M 	c #5F443A",
"N 	c #5E8746",
"O 	c #92D361",
"P 	c #3D9D54",
"Q 	c #765553",
"R 	c #A75056",
"S 	c #A14E57",
"T 	c #76405A",
"U 	c #5B3650",
"V 	c #653440",
"W 	c #6D394A",
"X 	c #50314B",
"Y 	c #407540",
"Z 	c #215C38",
"` 	c #544940",
" .	c #D0BE90",
"..	c #DDCC9A",
"+.	c #D7BD8B",
"@.	c #373437",
"#.	c #1C262F",
"$.	c #82BC58",
"%.	c #3DB152",
"&.	c #3E6D63",
"*.	c #9A5152",
"=.	c #A34E57",
"-.	c #A64F56",
";.	c #904858",
">.	c #6B3E5B",
",.	c #693D5B",
"'.	c #6F5F4C",
").	c #BCA176",
"!.	c #72614E",
"~.	c #B6A179",
"{.	c #302F35",
"].	c #242130",
"^.	c #598244",
"/.	c #3EAC55",
"(.	c #407167",
"_.	c #8D4D4E",
":.	c #A24E57",
"<.	c #894659",
"[.	c #6C3E5B",
"}.	c #633A57",
"|.	c #58354F",
"1.	c #492E46",
"2.	c #171D2E",
"3.	c #222331",
"4.	c #433A40",
"5.	c #2F2C36",
"6.	c #B67967",
"7.	c #65433E",
"8.	c #448F5E",
"9.	c #3F5955",
"0.	c #97474A",
"a.	c #A04D57",
"b.	c #5E3753",
"c.	c #412C42",
"d.	c #1E2C32",
"e.	c #297C40",
"f.	c #309548",
"g.	c #529F4C",
"h.	c #2D713D",
"i.	c #161D2E",
"j.	c #40383F",
"k.	c #806960",
"l.	c #554747",
"m.	c #312733",
"n.	c #BF7968",
"o.	c #BE7465",
"p.	c #B8645C",
"q.	c #B45555",
"r.	c #B65555",
"s.	c #7D404D",
"t.	c #1D2433",
"u.	c #365E59",
"v.	c #3A9E59",
"w.	c #38B251",
"x.	c #64BF57",
"y.	c #8BCF5F",
"z.	c #417940",
"A.	c #4B4045",
"B.	c #856D63",
"C.	c #5E4E4A",
"D.	c #B36C5F",
"E.	c #B65655",
"F.	c #B45454",
"G.	c #303039",
"H.	c #2E4F4E",
"I.	c #3E6C64",
"J.	c #3E8B61",
"K.	c #33984D",
"L.	c #256F3D",
"M.	c #297E41",
"N.	c #63B654",
"O.	c #74BD58",
"P.	c #214D35",
"Q.	c #1E2130",
"R.	c #5E4F4F",
"S.	c #433D3E",
"T.	c #563141",
"U.	c #8E4449",
"V.	c #AE5256",
"W.	c #B55555",
"X.	c #AD5255",
"Y.	c #332437",
"Z.	c #417168",
"`.	c #417067",
" +	c #305250",
".+	c #335754",
"++	c #1F5536",
"@+	c #329C4A",
"#+	c #256C3C",
"$+	c #4D713F",
"%+	c #67944A",
"&+	c #276139",
"*+	c #2E9046",
"=+	c #7D3F4D",
"-+	c #9E4C55",
";+	c #A95156",
">+	c #713E56",
",+	c #353F46",
"'+	c #3D6A63",
")+	c #3D6A62",
"!+	c #182231",
"~+	c #182F30",
"{+	c #459A4A",
"]+	c #8CD160",
"^+	c #65954A",
"/+	c #5C2F39",
"(+	c #562D38",
"_+	c #B55454",
":+	c #924958",
"<+	c #4C3C4D",
"[+	c #395F5B",
"}+	c #3B3945",
"|+	c #1B1D30",
"1+	c #2C8A44",
"2+	c #3BB351",
"3+	c #339548",
"4+	c #1F2130",
"5+	c #2B2732",
"6+	c #8B4447",
"7+	c #98484B",
"8+	c #88424C",
"9+	c #683C5A",
"0+	c #63445B",
"a+	c #46444F",
"b+	c #55334D",
"c+	c #191D2F",
"d+	c #1F5236",
"e+	c #256E3C",
"f+	c #1E4834",
"g+	c #6A5B4B",
"h+	c #917962",
"i+	c #AD936D",
"j+	c #AF956E",
"k+	c #7D6A59",
"l+	c #594A4C",
"m+	c #4E4144",
"n+	c #4E4143",
"o+	c #695650",
"p+	c #6A5750",
"q+	c #665451",
"r+	c #36363A",
"s+	c #37313A",
"t+	c #5F504E",
"u+	c #452B41",
"v+	c #5B354F",
"w+	c #472E43",
"x+	c #4B3544",
"y+	c #483144",
"z+	c #463043",
"A+	c #4D3A45",
"B+	c #4E4242",
"C+	c #4F4344",
"D+	c #4D4144",
"E+	c #202231",
"F+	c #1F4C35",
"G+	c #2F9247",
"H+	c #2D2A36",
"I+	c #524444",
"J+	c #8A4247",
"K+	c #A04B4E",
"L+	c #9E4C56",
"M+	c #5B3651",
"N+	c #544748",
"O+	c #6A5853",
"P+	c #524545",
"Q+	c #655451",
"R+	c #275C39",
"S+	c #1D4C35",
"T+	c #201E2F",
"U+	c #281F30",
"V+	c #2B2030",
"W+	c #412A41",
"X+	c #422A42",
"Y+	c #2E2337",
"Z+	c #232232",
"`+	c #715D55",
" @	c #2E2B36",
".@	c #181D2F",
"+@	c #5D4D4A",
"@@	c #564846",
"                                                                                                                                ",
"                                                                                                                                ",
"                                                                                                                                ",
"                                                                                                                                ",
"                                                                                                                                ",
"                                                                                                                                ",
"                                                                                                                                ",
"                                                                                                                                ",
"                                                                                                                                ",
"                                                                                                                                ",
"                                                                                                                                ",
"                                                                                                                                ",
"                                                                                                                                ",
"                                                                                                                                ",
"                                                                                                                                ",
"                                                                                                                                ",
"                                              .                                                                                 ",
"                                    + @                                                                                         ",
"                                    # $                                                                                         ",
"                                          % % % %                                                                               ",
"                                    % % & * = = + %                                                                             ",
"                                      % - ; > , ' )                                                                             ",
"                                        % % ! ~ { ]       ^ /                                                                   ",
"                                          ( _ : { <       [ } |                                                                 ",
"                                          1 _ 2 3 4     5 6 7 8 9 0         a                                                   ",
"                                          b c d e f g   h i j k l m n     o p                                                   ",
"                                        q r s t u v w x y z A B C D E F 0 G H                                                   ",
"                                        I J K L M   N O P Q R S T U V W X Y Z                                                   ",
"                                        `  ...+.@.  #.$.%.&.*.=.S -.;.>.,.X                                                     ",
"                                        '.).!.~.{.  ].^./.(._.:.<.[.}.|.|.1.0                                                   ",
"                                        2.3.4.5.  5 6.7.8.9.0.a.b.c.d.e.f.g.h.i.                                                ",
"                                          j.k.l.  m.n.o.p.q.r.s.t.u.v.w.w.x.y.z.                                                ",
"                                          A.B.C.  5 D.E.r.r.F.G.H.I.J.K.L.M.N.O.P.                                              ",
"                                          Q.R.S.    T.U.V.W.X.Y.H.Z.`. +.+  ++M.@+#+                                            ",
"                                          $+%+&+*+  =+-+=.;+=.>+,+'+Z.Z.)+!+    ~+                                              ",
"                                          {+]+^+#+0 /+(+_+r.W.:+}.<+[+`.}+|+                                                    ",
"                                          1+2+3+0 4+5+6+7+7+8+}.9+9+0+a+|.b+c+                                                  ",
"                                          d+e+f+  g+h+h+i+h+j+k+l+m+n+o+p+q+r+#+                                                ",
"                                            s+t+  u+v+w+x+y+x+z+A+m+B+C+D+E+F+G+                                                ",
"                                            H+I+  J+K+-.L+>.,.,.9+M+N+O+P+Q+R+S+                                                ",
"                                                  T+T+U+V+W+X+X+Y+Z+`+ @.@+@@@                                                  ",
"                                                      0                 0                                                       ",
"                                                    0                   0                                                       ",
"                                                                                                                                ",
"                                                                                                                                ",
"                                                                                                                                ",
"                                                                                                                                ",
"                                                                                                                                ",
"                                                                                                                                ",
"                                                                                                                                ",
"                                                                                                                                ",
"                                                                                                                                ",
"                                                                                                                                ",
"                                                                                                                                ",
"                                                                                                                                ",
"                                                                                                                                ",
"                                                                                                                                ",
"                                                                                                                                ",
"                                                                                                                                ",
"                                                                                                                                ",
"                                                                                                                                ",
"                                                                                                                                ",
"                                                                                                                                ",
"                                                                                                                                "};
