/* XPM */
static char * P5_xpm[] = {
"64 64 288 2",
"  	c None",
". 	c #AF7D64",
"+ 	c #BA8363",
"@ 	c #D8935F",
"# 	c #B58064",
"$ 	c #D19060",
"% 	c #D9945F",
"& 	c #AA7A65",
"* 	c #DEA25C",
"= 	c #EAC155",
"- 	c #DA965F",
"; 	c #D9955F",
"> 	c #EBC254",
", 	c #F2D34F",
"' 	c #E7B857",
") 	c #F3D54E",
"! 	c #EBC155",
"~ 	c #2A2431",
"{ 	c #84544D",
"] 	c #292030",
"^ 	c #413133",
"/ 	c #DCA25B",
"( 	c #FEEB4A",
"_ 	c #9A6A49",
": 	c #553B3D",
"< 	c #BE7565",
"[ 	c #97494B",
"} 	c #241E2F",
"| 	c #B57C52",
"1 	c #EFCD59",
"2 	c #FFF5B5",
"3 	c #DFBB4F",
"4 	c #392C32",
"5 	c #232130",
"6 	c #A46D5E",
"7 	c #BC695F",
"8 	c #C17C6A",
"9 	c #6B3C52",
"0 	c #1A1D2F",
"a 	c #895E44",
"b 	c #E2AE59",
"c 	c #FEF6C7",
"d 	c #FEF5C8",
"e 	c #AA794D",
"f 	c #295537",
"g 	c #285938",
"h 	c #BE7867",
"i 	c #B9625C",
"j 	c #915C61",
"k 	c #513048",
"l 	c #8B4247",
"m 	c #6D3949",
"n 	c #2D2337",
"o 	c #161C2E",
"p 	c #17292F",
"q 	c #1C2D30",
"r 	c #1E292F",
"s 	c #26232F",
"t 	c #C59768",
"u 	c #FAEAA3",
"v 	c #FEF3A4",
"w 	c #DFBC5A",
"x 	c #6E7945",
"y 	c #91D060",
"z 	c #8BCE5F",
"A 	c #338B45",
"B 	c #8D4849",
"C 	c #A34E57",
"D 	c #974A54",
"E 	c #AA5051",
"F 	c #9A4B58",
"G 	c #653A57",
"H 	c #4B2E46",
"I 	c #201E30",
"J 	c #2C8743",
"K 	c #60AB51",
"L 	c #5B8344",
"M 	c #343035",
"N 	c #CEB586",
"O 	c #EDDDA8",
"P 	c #E9D7A0",
"Q 	c #76654E",
"R 	c #293B32",
"S 	c #69974B",
"T 	c #63BD57",
"U 	c #417660",
"V 	c #96494C",
"W 	c #A95156",
"X 	c #7A425A",
"Y 	c #723E56",
"Z 	c #803E44",
"` 	c #A04B4E",
" .	c #7E4259",
"..	c #423243",
"+.	c #1D4A34",
"@.	c #242531",
"#.	c #B9A47B",
"$.	c #D5C191",
"%.	c #BCA77D",
"&.	c #8F8366",
"*.	c #4E703F",
"=.	c #63BE57",
"-.	c #3E8B61",
";.	c #77615D",
">.	c #B55555",
",.	c #B45455",
"'.	c #AE5256",
").	c #77415A",
"!.	c #693D5B",
"~.	c #673C5A",
"{.	c #1E1E30",
"].	c #242431",
"^.	c #947E5F",
"/.	c #564B41",
"(.	c #937D5F",
"_.	c #574C42",
":.	c #4E373B",
"<.	c #4F3E3B",
"[.	c #54AF52",
"}.	c #407B65",
"|.	c #514547",
"1.	c #AF5255",
"2.	c #924958",
"3.	c #75405A",
"4.	c #5D3753",
"5.	c #422B42",
"6.	c #413542",
"7.	c #19222F",
"8.	c #181D2F",
"9.	c #504448",
"0.	c #4A4044",
"a.	c #AC6B5E",
"b.	c #797856",
"c.	c #77625D",
"d.	c #97484B",
"e.	c #66384E",
"f.	c #2D2538",
"g.	c #295644",
"h.	c #2D8B44",
"i.	c #37AF50",
"j.	c #39B050",
"k.	c #5EAB51",
"l.	c #245036",
"m.	c #202231",
"n.	c #79645D",
"o.	c #7D665C",
"p.	c #A56D5E",
"q.	c #C07767",
"r.	c #C07566",
"s.	c #BA625C",
"t.	c #B65555",
"u.	c #90464C",
"v.	c #2B4446",
"w.	c #365E59",
"x.	c #3E8A61",
"y.	c #38B251",
"z.	c #38B151",
"A.	c #38B050",
"B.	c #77C65B",
"C.	c #7DC059",
"D.	c #1D3030",
"E.	c #6A5856",
"F.	c #7C665B",
"G.	c #7A524B",
"H.	c #BB6B60",
"I.	c #B65655",
"J.	c #70373E",
"K.	c #20333A",
"L.	c #3A655E",
"M.	c #417368",
"N.	c #337D51",
"O.	c #1E4C36",
"P.	c #182E30",
"Q.	c #339548",
"R.	c #7DC95C",
"S.	c #4F7E42",
"T.	c #3A3A3B",
"U.	c #39353B",
"V.	c #226239",
"W.	c #38263C",
"X.	c #67374B",
"Y.	c #904754",
"Z.	c #A44F57",
"`.	c #A95056",
" +	c #68394E",
".+	c #22323A",
"++	c #407067",
"@+	c #417168",
"#+	c #3B665F",
"$+	c #406F66",
"%+	c #253E41",
"&+	c #2B7D41",
"*+	c #36A64D",
"=+	c #264E35",
"-+	c #8AC65C",
";+	c #5C8545",
">+	c #319B49",
",+	c #64333F",
"'+	c #AB5052",
")+	c #A04E57",
"!+	c #58354F",
"~+	c #2E494A",
"{+	c #3D6A63",
"]+	c #256D3C",
"^+	c #182B2F",
"/+	c #266F3D",
"(+	c #64BF57",
"_+	c #75BD58",
":+	c #204D35",
"<+	c #161D2E",
"[+	c #231E2F",
"}+	c #62323B",
"|+	c #AC5151",
"1+	c #6A3D5B",
"2+	c #633A57",
"3+	c #4C3F4F",
"4+	c #426F67",
"5+	c #4E4754",
"6+	c #412A41",
"7+	c #1F5236",
"8+	c #37AE50",
"9+	c #34A64D",
"0+	c #17272F",
"a+	c #1F2230",
"b+	c #492E37",
"c+	c #803F43",
"d+	c #98484B",
"e+	c #7E3F4D",
"f+	c #683C5A",
"g+	c #4B3248",
"h+	c #50314B",
"i+	c #1C4333",
"j+	c #182A2F",
"k+	c #2B3036",
"l+	c #191E2F",
"m+	c #6A5B4B",
"n+	c #917962",
"o+	c #AD936D",
"p+	c #5A4C4D",
"q+	c #5B4B4B",
"r+	c #4E4144",
"s+	c #40363C",
"t+	c #7C655B",
"u+	c #5E4E4A",
"v+	c #635250",
"w+	c #2E8A45",
"x+	c #2C8944",
"y+	c #1C1F30",
"z+	c #7A655D",
"A+	c #222331",
"B+	c #452B41",
"C+	c #5B354F",
"D+	c #472E43",
"E+	c #4B3544",
"F+	c #483144",
"G+	c #432D42",
"H+	c #554448",
"I+	c #4D4144",
"J+	c #3F363B",
"K+	c #5A4C4C",
"L+	c #3D353B",
"M+	c #1F2231",
"N+	c #33964D",
"O+	c #242432",
"P+	c #1F1E2F",
"Q+	c #8A4247",
"R+	c #A95051",
"S+	c #A64F56",
"T+	c #9E4C56",
"U+	c #6B3E5B",
"V+	c #55334E",
"W+	c #665451",
"X+	c #594A49",
"Y+	c #64534F",
"Z+	c #524647",
"`+	c #212C32",
" @	c #17262F",
".@	c #261F2F",
"+@	c #281F30",
"@@	c #2B2030",
"#@	c #422A42",
"$@	c #201E31",
"%@	c #1C1D30",
"&@	c #5C4C49",
"*@	c #7A645B",
"=@	c #202230",
"-@	c #4F4243",
";@	c #5D4D4A",
"                                                                                                                                ",
"                                                                                                                                ",
"                                                                                                                                ",
"                                                                                                                                ",
"                                                                                                                                ",
"                                                                                                                                ",
"                                                                                                                                ",
"                                                                                                                                ",
"                                                                                                                                ",
"                                                                                                                                ",
"                                                                                                                                ",
"                                                                                                                                ",
"                                                                                                                                ",
"                                                                                                                                ",
"                                                                                                                                ",
"                                                                                                                                ",
"                                      .                                                                                         ",
"                                    + @                                                                                         ",
"                                    # $     % % % %                                                                             ",
"                                    &   % % % * = - %                                                                           ",
"                                        %     ; > , ;                                                                           ",
"                                              % ' ' ;                                                                           ",
"                                              % ) ! @     ~ { ]                                                                 ",
"                                            ^ / ( ) _     : < [ }                                                               ",
"                                            | 1 2 3 4   5 6 7 8 9 0                                                             ",
"                                          a b c d e f g ~ h i j k l m n o p q r                                                 ",
"                                        s t u v w x y z A B C D E F G H I J K L                                                 ",
"                                        M N O P Q   R S T U V W X Y Z `  ...+.                                                  ",
"                                        @.#.$.%.&.    *.=.-.;.>.,.'.F ).!.~.{.                                                  ",
"                                        ].^./.(._.  :.<.[.}.|.1.2.3.4.5.6.6.7.                                                  ",
"                                          8.9.0.    6 a.b.c.d.'.e.f.g.h.i.j.k.l.                                                ",
"                                          m.n.o.    p.q.r.s.t.u.v.w.x.y.z.A.B.C.D.                                              ",
"                                            E.F.    G.H.I.t.t.J.K.L.M.N.O.P.Q.R.S.                                              ",
"                                            T.U.V.  W.X.Y.Z.`. +.+++@+#+$+%+  &+*+                                              ",
"                                          =+-+;+>+  ,+` '+,.>.)+!+~+++@+{+K.    ]+^+                                            ",
"                                          /+(+_+:+<+[+}+|+t.>.2.1+2+3+4+5+6+                                                    ",
"                                          7+8+9+0+a+b+c+d+d+e+2+f+f+~.g+4.h+i+j+                                                ",
"                                            j+k+l+m+n+n+o+n+o+p+q+r+s+t+u+v+w+x+                                                ",
"                                            y+z+A+B+C+D+E+F+E+G+H+I+J+K+L+M+N+x+                                                ",
"                                              O+P+Q+R+S+T+U+!.!.~.V+W+X+Y+Z+`+ @                                                ",
"                                                    .@+@@@6+#@6+$@%@&@*@=@-@;@                                                  ",
"                                                      o               A+o                                                       ",
"                                                    o                   o                                                       ",
"                                                                                                                                ",
"                                                                                                                                ",
"                                                                                                                                ",
"                                                                                                                                ",
"                                                                                                                                ",
"                                                                                                                                ",
"                                                                                                                                ",
"                                                                                                                                ",
"                                                                                                                                ",
"                                                                                                                                ",
"                                                                                                                                ",
"                                                                                                                                ",
"                                                                                                                                ",
"                                                                                                                                ",
"                                                                                                                                ",
"                                                                                                                                ",
"                                                                                                                                ",
"                                                                                                                                ",
"                                                                                                                                ",
"                                                                                                                                ",
"                                                                                                                                "};
