/* XPM */
static char * P6_xpm[] = {
"64 64 289 2",
"  	c None",
". 	c #9E7466",
"+ 	c #D9945F",
"@ 	c #E2AD5A",
"# 	c #E7B957",
"$ 	c #F3D44F",
"% 	c #FAE249",
"& 	c #DA965F",
"* 	c #D9955F",
"= 	c #E3AE5A",
"- 	c #DA975F",
"; 	c #F3D34F",
"> 	c #FAE348",
", 	c #232130",
"' 	c #E0AD59",
") 	c #FFED4D",
"! 	c #F7DF72",
"~ 	c #A4704D",
"{ 	c #302732",
"] 	c #A8695C",
"^ 	c #4F2C36",
"/ 	c #362A31",
"( 	c #FFF2A2",
"_ 	c #FFF4B6",
": 	c #B67C53",
"< 	c #6A4845",
"[ 	c #C17A69",
"} 	c #B1635B",
"| 	c #482A36",
"1 	c #161C2E",
"2 	c #C18656",
"3 	c #FAE670",
"4 	c #FFF7C9",
"5 	c #FAE455",
"6 	c #D5935D",
"7 	c #282331",
"8 	c #B87A67",
"9 	c #C07666",
"0 	c #B66E64",
"a 	c #653B56",
"b 	c #251F30",
"c 	c #211E30",
"d 	c #405D39",
"e 	c #885E44",
"f 	c #EFCC52",
"g 	c #FFF9D8",
"h 	c #FAEAA4",
"i 	c #B67F52",
"j 	c #3E5A39",
"k 	c #5F9D4C",
"l 	c #538545",
"m 	c #252B31",
"n 	c #B67263",
"o 	c #B8625C",
"p 	c #78485A",
"q 	c #693746",
"r 	c #964953",
"s 	c #834355",
"t 	c #412A41",
"u 	c #416B3D",
"v 	c #82C25A",
"w 	c #46653C",
"x 	c #795440",
"y 	c #E5C179",
"z 	c #F9F1C9",
"A 	c #EAD29C",
"B 	c #765441",
"C 	c #517540",
"D 	c #7CB255",
"E 	c #8CCF5F",
"F 	c #3AA74E",
"G 	c #75514E",
"H 	c #A14E57",
"I 	c #AE5256",
"J 	c #984B57",
"K 	c #56334B",
"L 	c #573041",
"M 	c #63333F",
"N 	c #3E7540",
"O 	c #29743E",
"P 	c #2D2B33",
"Q 	c #B69F77",
"R 	c #ECDCA6",
"S 	c #E3CE9A",
"T 	c #847157",
"U 	c #171D2E",
"V 	c #73A650",
"W 	c #63BE57",
"X 	c #3E8362",
"Y 	c #824A4C",
"Z 	c #B55555",
"` 	c #9B4C58",
" .	c #8F4755",
"..	c #99494F",
"+.	c #934958",
"@.	c #984B58",
"#.	c #57344F",
"$.	c #1A2430",
"%.	c #2C2A33",
"&.	c #C9AE80",
"*.	c #B59E76",
"=.	c #AB9671",
"-.	c #8E8266",
";.	c #3D5738",
">.	c #62BD56",
",.	c #3E8A61",
"'.	c #76625D",
").	c #B65555",
"!.	c #9A4C58",
"~.	c #884658",
"{.	c #693D5A",
"].	c #663C59",
"^.	c #1D1E30",
"/.	c #181D2E",
"(.	c #564B41",
"_.	c #292832",
":.	c #6C5D4B",
"<.	c #242431",
"[.	c #7A524B",
"}.	c #774D47",
"|.	c #469C50",
"1.	c #407266",
"2.	c #513B40",
"3.	c #AE5255",
"4.	c #914858",
"5.	c #773E52",
"6.	c #4A2E46",
"7.	c #1F2B32",
"8.	c #296D3D",
"9.	c #2B6F3E",
"0.	c #276039",
"a.	c #17242F",
"b.	c #1B1F2F",
"c.	c #685755",
"d.	c #655451",
"e.	c #A56E5E",
"f.	c #B97867",
"g.	c #A27860",
"h.	c #9B5B58",
"i.	c #AC5152",
"j.	c #A85056",
"k.	c #462C42",
"l.	c #21323A",
"m.	c #347454",
"n.	c #35A84E",
"o.	c #38B251",
"p.	c #58BA55",
"q.	c #8CD060",
"r.	c #60A34E",
"s.	c #18262F",
"t.	c #79645D",
"u.	c #7E675C",
"v.	c #A46D5E",
"w.	c #BE6E62",
"x.	c #C4816D",
"y.	c #C37D6A",
"z.	c #B9615B",
"A.	c #7F3E44",
"B.	c #2A4748",
"C.	c #3D6962",
"D.	c #3F8463",
"E.	c #38B051",
"F.	c #329F4B",
"G.	c #309648",
"H.	c #59B955",
"I.	c #85CC5E",
"J.	c #507340",
"K.	c #5D4E50",
"L.	c #715D56",
"M.	c #50373B",
"N.	c #AB6A5E",
"O.	c #B9635C",
"P.	c #B65756",
"Q.	c #B65655",
"R.	c #6F373F",
"S.	c #1F3139",
"T.	c #3B665F",
"U.	c #417168",
"V.	c #305650",
"W.	c #294847",
"X.	c #182030",
"Y.	c #193731",
"Z.	c #308A44",
"`.	c #52A74E",
" +	c #17252F",
".+	c #1D282F",
"++	c #4E6F3F",
"@+	c #1F2E31",
"#+	c #2C8743",
"$+	c #442B41",
"%+	c #814151",
"&+	c #904755",
"*+	c #A24E57",
"=+	c #723E56",
"-+	c #313440",
";+	c #3D6A63",
">+	c #417067",
",+	c #294647",
"'+	c #319B4A",
")+	c #183030",
"!+	c #276139",
"~+	c #73A550",
"{+	c #2C8843",
"]+	c #5D303A",
"^+	c #7F3D43",
"/+	c #A44D4F",
"(+	c #AD5256",
"_+	c #653A57",
":+	c #3C3845",
"<+	c #3B645E",
"[+	c #375E5A",
"}+	c #1A2131",
"|+	c #1F5436",
"1+	c #256F3C",
"2+	c #4BB753",
"3+	c #61BB56",
"4+	c #1C3030",
"5+	c #422634",
"6+	c #8B4246",
"7+	c #B55454",
"8+	c #78415A",
"9+	c #693D5B",
"0+	c #5D3A54",
"a+	c #445F5D",
"b+	c #5F4359",
"c+	c #50314B",
"d+	c #193330",
"e+	c #2F9347",
"f+	c #2C8944",
"g+	c #17232F",
"h+	c #4F453F",
"i+	c #6E5C4F",
"j+	c #6B4E45",
"k+	c #753F42",
"l+	c #743C41",
"m+	c #613A48",
"n+	c #593650",
"o+	c #58354F",
"p+	c #52334B",
"q+	c #442E42",
"r+	c #53344C",
"s+	c #39283D",
"t+	c #297D40",
"u+	c #1E4E35",
"v+	c #181D2F",
"w+	c #483E43",
"x+	c #1C1F30",
"y+	c #50463F",
"z+	c #806B5A",
"A+	c #AD936D",
"B+	c #917962",
"C+	c #988164",
"D+	c #57494C",
"E+	c #705C55",
"F+	c #6F5B55",
"G+	c #5C4C49",
"H+	c #8A7164",
"I+	c #5C4D49",
"J+	c #494645",
"K+	c #37AF50",
"L+	c #2F9447",
"M+	c #6F5C55",
"N+	c #252231",
"O+	c #7B3E4C",
"P+	c #884558",
"Q+	c #69394F",
"R+	c #5B354F",
"S+	c #452E43",
"T+	c #312838",
"U+	c #5B4B49",
"V+	c #3B343C",
"W+	c #4C4041",
"X+	c #308C4A",
"Y+	c #256F3D",
"Z+	c #60313A",
"`+	c #8C4347",
" @	c #97474B",
".@	c #95474B",
"+@	c #683C5A",
"@@	c #633A57",
"#@	c #443A3F",
"$@	c #705C58",
"%@	c #222331",
"&@	c #695754",
"*@	c #171C2E",
"=@	c #1F1E31",
"-@	c #1C1D30",
";@	c #4D4141",
">@	c #514343",
"                                                                                                                                ",
"                                                                                                                                ",
"                                                                                                                                ",
"                                                                                                                                ",
"                                                                                                                                ",
"                                                                                                                                ",
"                                                                                                                                ",
"                                                                                                                                ",
"                                                                                                                                ",
"                                                                                                                                ",
"                                                                                                                                ",
"                                                                                                                                ",
"                                                                                                                                ",
"                                                                                                                                ",
"                                                                                                                                ",
"                                      .                                                                                         ",
"                                    .                                                                                           ",
"                                    .         +                                                                                 ",
"                                          + + @ # +                                                                             ",
"                                              $ % &                                                                             ",
"                                          * = = - +                                                                             ",
"                                        * ; > &   +         ,                                                                   ",
"                                        ' ) ! * ~         { ] ^                                                                 ",
"                                      / ' ( _ # :         < [ } | 1                                                             ",
"                                        2 3 4 5 6       7 8 9 0 a b c       d d                                                 ",
"                                        e f g h i j k l m n o p q r s t 1 u v w                                                 ",
"                                        x y z A B C D E F G H I H J K L M N O                                                   ",
"                                        P Q R S T   U V W X Y Z `  ...+.@.#.$.                                                  ",
"                                        %.&.*.=.-.  1 ;.>.,.'.).).Z !.~.{.].^.                                                  ",
"                                        /.(._.:.<.  [.}.|.1.2.3.4.5.6.7.8.9.0.a.                                                ",
"                                          b.c.d.    e.f.g.h.i.j.k.l.m.n.o.p.q.r.s.                                              ",
"                                            t.u.    v.w.x.y.z.A.B.C.D.E.F.G.H.I.J.                                              ",
"                                            K.L.    M.N.O.P.Q.R.S.T.U.V.W.X.Y.Z.`. +                                            ",
"                                          .+++@+#+  $+%+&+*+j.=+-+;+U.>+U.,+    '+)+                                            ",
"                                          !+E ~+{+  ]+^+/+).).(+_+:+<+U.[+}+    |+                                              ",
"                                          1+2+3+4+1 5+6+7+).I 8+9+9+0+a+b+c+1                                                   ",
"                                          d+e+f+g+h+i+j+k+l+m+n+o+o+p+q+r+s+t+u+                                                ",
"                                            v+w+x+y+i+z+A+B+C+D+E+F+G+H+I+J+K+L+                                                ",
"                                            b.M+N+O+P+Q+R+o+o+#.S+T+U+V+W+g+X+Y+                                                ",
"                                                  Z+`+ @.@{.+@@@#.#@$@%@&@I+*@                                                  ",
"                                                      1 1 =@=@-@  %@;@1 b.>@                                                    ",
"                                                      1                 1                                                       ",
"                                                    1                   1                                                       ",
"                                                                                                                                ",
"                                                                                                                                ",
"                                                                                                                                ",
"                                                                                                                                ",
"                                                                                                                                ",
"                                                                                                                                ",
"                                                                                                                                ",
"                                                                                                                                ",
"                                                                                                                                ",
"                                                                                                                                ",
"                                                                                                                                ",
"                                                                                                                                ",
"                                                                                                                                ",
"                                                                                                                                ",
"                                                                                                                                ",
"                                                                                                                                ",
"                                                                                                                                ",
"                                                                                                                                ",
"                                                                                                                                ",
"                                                                                                                                ",
"                                                                                                                                "};
