/* XPM */
static char * P7_xpm[] = {
"64 64 295 2",
"  	c None",
". 	c #9E7466",
"+ 	c #DA965F",
"@ 	c #D9945F",
"# 	c #ECC553",
"$ 	c #E7B857",
"% 	c #E1A95B",
"& 	c #EDC753",
"* 	c #DA975F",
"= 	c #C78859",
"- 	c #E3B059",
"; 	c #FEEB45",
"> 	c #ECC454",
", 	c #392B34",
"' 	c #402E36",
") 	c #D38F5D",
"! 	c #F8DF4C",
"~ 	c #FFF077",
"{ 	c #DC9E5D",
"] 	c #C58658",
"^ 	c #5A3E3F",
"/ 	c #B5615A",
"( 	c #5D3039",
"_ 	c #161C2E",
": 	c #B67B53",
"< 	c #FDED8A",
"[ 	c #FFF3A4",
"} 	c #C18456",
"| 	c #1A1D2E",
"1 	c #9F665A",
"2 	c #B75756",
"3 	c #B8675E",
"4 	c #502D40",
"5 	c #151C2E",
"6 	c #202D30",
"7 	c #A46F4D",
"8 	c #F8DF4D",
"9 	c #FFF29C",
"0 	c #F4D858",
"a 	c #DA955F",
"b 	c #78533F",
"c 	c #13162E",
"d 	c #547841",
"e 	c #19292F",
"f 	c #563C3D",
"g 	c #BF7465",
"h 	c #BA635C",
"i 	c #B06660",
"j 	c #5B354D",
"k 	c #69343C",
"l 	c #542D38",
"m 	c #181C2F",
"n 	c #5F8846",
"o 	c #568946",
"p 	c #68493B",
"q 	c #E8BF53",
"r 	c #FFF7C4",
"s 	c #E2AC5A",
"t 	c #9C6B4A",
"u 	c #8ECB5E",
"v 	c #64AE52",
"w 	c #38583B",
"x 	c #B25C57",
"y 	c #B35556",
"z 	c #904651",
"A 	c #98484B",
"B 	c #B35455",
"C 	c #7E4259",
"D 	c #442C43",
"E 	c #14192E",
"F 	c #78BB57",
"G 	c #1F5737",
"H 	c #9C784B",
"I 	c #F8E997",
"J 	c #FAEEA8",
"K 	c #DEC980",
"L 	c #815942",
"M 	c #567C42",
"N 	c #8BD05F",
"O 	c #37A852",
"P 	c #665855",
"Q 	c #A44E55",
"R 	c #B65555",
"S 	c #A95056",
"T 	c #753E53",
"U 	c #5F3241",
"V 	c #864045",
"W 	c #63374D",
"X 	c #2C5B3B",
"Y 	c #1F5536",
"Z 	c #5D5044",
"` 	c #C1AD81",
" .	c #EDDFA9",
"..	c #DFC693",
"+.	c #4C433D",
"@.	c #181F2E",
"#.	c #7AAF54",
"$.	c #49B653",
"%.	c #3F7864",
"&.	c #8A5251",
"*.	c #B45455",
"=.	c #A24E57",
"-.	c #AB5156",
";.	c #B25355",
">.	c #8A4759",
",.	c #693D5B",
"'.	c #5D3753",
").	c #131B2D",
"!.	c #594E43",
"~.	c #D6BA89",
"{.	c #988464",
"].	c #C8B183",
"^.	c #524D44",
"/.	c #222130",
"(.	c #45623B",
"_.	c #4AB454",
":.	c #407767",
"<.	c #7A4F4F",
"[.	c #B55555",
"}.	c #B25455",
"|.	c #8D4759",
"1.	c #6E3E59",
"2.	c #58344F",
"3.	c #58354F",
"4.	c #54334D",
"5.	c #1A1E2F",
"6.	c #5C5044",
"7.	c #413A39",
"8.	c #625447",
"9.	c #07182D",
"0.	c #AF7563",
"a.	c #794445",
"b.	c #429258",
"c.	c #41635D",
"d.	c #874145",
"e.	c #AA5156",
"f.	c #683B55",
"g.	c #452C44",
"h.	c #252834",
"i.	c #256C3C",
"j.	c #309548",
"k.	c #4B9D4B",
"l.	c #4C8F47",
"m.	c #1D4032",
"n.	c #2D2A36",
"o.	c #705D5A",
"p.	c #574949",
"q.	c #00162C",
"r.	c #BD7D6A",
"s.	c #C27F6B",
"t.	c #B7615A",
"u.	c #B45555",
"v.	c #8F4650",
"w.	c #222434",
"x.	c #305351",
"y.	c #3C945D",
"z.	c #38B251",
"A.	c #54B955",
"B.	c #90D261",
"C.	c #76B956",
"D.	c #314935",
"E.	c #3E363E",
"F.	c #836C62",
"G.	c #6C5952",
"H.	c #08182D",
"I.	c #AE7262",
"J.	c #BC695F",
"K.	c #B95E5A",
"L.	c #4C2F39",
"M.	c #2B494A",
"N.	c #3C6962",
"O.	c #3F8264",
"P.	c #359B51",
"Q.	c #27753E",
"R.	c #26733D",
"S.	c #3B9B4A",
"T.	c #64BD57",
"U.	c #40A74E",
"V.	c #1F5336",
"W.	c #2A2835",
"X.	c #6D5B58",
"Y.	c #62514D",
"Z.	c #472C3C",
"`.	c #894448",
" +	c #AB5255",
".+	c #B25456",
"++	c #4A2B3D",
"@+	c #263F42",
"#+	c #417068",
"$+	c #417168",
"%+	c #305250",
"&+	c #365D58",
"*+	c #1B2734",
"=+	c #182D30",
"-+	c #246A3B",
";+	c #26703D",
">+	c #324935",
",+	c #46643C",
"'+	c #204935",
")+	c #2A8342",
"!+	c #6C3848",
"~+	c #A14E56",
"{+	c #A65057",
"]+	c #A64F57",
"^+	c #7D4258",
"/+	c #3B3A46",
"(+	c #3A655F",
"_+	c #406F66",
":+	c #1F3139",
"<+	c #438243",
"[+	c #92D361",
"}+	c #5D8645",
"|+	c #2E8F46",
"1+	c #72383F",
"2+	c #753940",
"3+	c #B05353",
"4+	c #9D4D57",
"5+	c #663C59",
"6+	c #4E364C",
"7+	c #395756",
"8+	c #3B464C",
"9+	c #252033",
"0+	c #2B8643",
"a+	c #5AAD51",
"b+	c #16212E",
"c+	c #502B36",
"d+	c #97474A",
"e+	c #A75057",
"f+	c #673F5B",
"g+	c #514D57",
"h+	c #56344E",
"i+	c #287B40",
"j+	c #161B2E",
"k+	c #0F192D",
"l+	c #6C5A4D",
"m+	c #806753",
"n+	c #743D41",
"o+	c #623A43",
"p+	c #58364F",
"q+	c #462F43",
"r+	c #50324A",
"s+	c #452D43",
"t+	c #246E3C",
"u+	c #226239",
"v+	c #232332",
"w+	c #463C42",
"x+	c #0E182D",
"y+	c #6B5A4E",
"z+	c #7F6C56",
"A+	c #998065",
"B+	c #977F64",
"C+	c #AA906C",
"D+	c #665650",
"E+	c #735F57",
"F+	c #6B5853",
"G+	c #4A3E40",
"H+	c #8B7265",
"I+	c #5D4D49",
"J+	c #5A4B4C",
"K+	c #33A34C",
"L+	c #36AB4F",
"M+	c #150E2D",
"N+	c #2C2936",
"O+	c #6F5B54",
"P+	c #432737",
"Q+	c #874557",
"R+	c #7E4153",
"S+	c #5B354F",
"T+	c #5A354F",
"U+	c #482F45",
"V+	c #34273A",
"W+	c #564846",
"X+	c #443A40",
"Y+	c #514443",
"Z+	c #2E8148",
"`+	c #2A8142",
" @	c #522C37",
".@	c #783A41",
"+@	c #96474B",
"@@	c #814253",
"#@	c #683C5A",
"$@	c #663B59",
"%@	c #4E3F44",
"&@	c #705D59",
"*@	c #302C36",
"=@	c #5E4E4E",
"-@	c #6B5852",
";@	c #141B2E",
">@	c #1B1D30",
",@	c #1F1E31",
"'@	c #1E1E30",
")@	c #453B3E",
"!@	c #363037",
"~@	c #171D2E",
"{@	c #584947",
"                                                                                                                                ",
"                                                                                                                                ",
"                                                                                                                                ",
"                                                                                                                                ",
"                                                                                                                                ",
"                                                                                                                                ",
"                                                                                                                                ",
"                                                                                                                                ",
"                                                                                                                                ",
"                                                                                                                                ",
"                                                                                                                                ",
"                                                                                                                                ",
"                                                                                                                                ",
"                                                                                                                                ",
"                                                                                                                                ",
"                                    .                                                                                           ",
"                                                                                                                                ",
"                                                                                                                                ",
"                                                  +                                                                             ",
"                                            @ @ # $                                                                             ",
"                                        @ % & @ * @                                                                             ",
"                                      = - ; >   @         , '                                                                   ",
"                                      ) ! ~ { ]           ^ / ( _                                                               ",
"                                      : < [ $ }         | 1 2 3 4 5         6                                                   ",
"                                      7 8 9 0 a b c d e f g h i j k l m   n o                                                   ",
"                                      p q r [ s t   u v w x y z A B C D E F G                                                   ",
"                                        H I J K L   M N O P Q R S T U V W X Y                                                   ",
"                                        Z `  ...+.  @.#.$.%.&.*.=.-.;.>.,.'.).                                                  ",
"                                        !.~.{.].^.  /.(._.:.<.[.}.|.1.2.3.4.5                                                   ",
"                                        5.6.7.8.  9.0.a.b.c.d.e.f.g.h.i.j.k.l.m.                                                ",
"                                          n.o.p.  q.r.s.t.u.R v.w.x.y.z.z.A.B.C.D.                                              ",
"                                          E.F.G.  H.I.J.K.R R L.M.N.O.P.Q.R.S.T.U.V.                                            ",
"                                          W.X.Y.    Z.`. +[..+++@+#+$+%+&+*+  =+-+;+                                            ",
"                                          >+,+'+)+  !+~+=.{+]+^+/+(+$+$+_+:+                                                    ",
"                                          <+[+}+|+  1+2+3+R R 4+5+6+7+$+8+9+                                                    ",
"                                          0+A.a+b+_ c+d+R R e+,.,.,.f+g+,.h+5                                                   ",
"                                          Y j.i+j+k+l+m+n+n+o+p+3.3.h+q+r+s+t+u+                                                ",
"                                            v+w+  x+y+z+A+B+C+D+E+F+G+H+I+J+K+L+M+                                              ",
"                                            N+O+  P+Q+R+S+T+3.3.U+V+W+X+Y+j+Z+`+                                                ",
"                                                   @.@A +@@@#@$@3.%@&@*@=@-@;@                                                  ",
"                                                      _ _ >@,@'@  )@!@_ ~@{@                                                    ",
"                                                      _                 _                                                       ",
"                                                    _ _                 _ _                                                     ",
"                                                                                                                                ",
"                                                                                                                                ",
"                                                                                                                                ",
"                                                                                                                                ",
"                                                                                                                                ",
"                                                                                                                                ",
"                                                                                                                                ",
"                                                                                                                                ",
"                                                                                                                                ",
"                                                                                                                                ",
"                                                                                                                                ",
"                                                                                                                                ",
"                                                                                                                                ",
"                                                                                                                                ",
"                                                                                                                                ",
"                                                                                                                                ",
"                                                                                                                                ",
"                                                                                                                                ",
"                                                                                                                                ",
"                                                                                                                                ",
"                                                                                                                                "};
