/* XPM */
static char * V1_xpm[] = {
"64 64 7 1",
" 	c None",
".	c #161C2E",
"+	c #F8F273",
"@	c #F1DA84",
"#	c #FEFA9D",
"$	c #B29678",
"%	c #DEC87E",
"                              ......        .......       ......",
"     ......    .....         ++++.......   .........    ....++++",
"   ......+++++++.......     ++++++++.........+++++...  ..@@+++++",
"  ...+++++++++++++++.....  .+++++++++++.....@++++++......@@#++++",
" ...+++++++++++++++@@@......++##++++++++....@++++++++...@@@#####",
" ...+++++++++++++++@@@++.....######++++++...@@++##++++..@@@@@@@#",
" ...@@@####++#######@@+++....@@@#####+++@@...@@@####++..$@@@@@@@",
" ...@@@@#######@@@@@@@@++++....@@@@@@@@@@@@@@@@@@@##+@@.$$@@@@@@",
" ...@@@@@@@@@@@@@@@@@@@@+++@@..$$$@@@@@@@@@@@%%%@@@@@@@@$$$@@@@@",
"  ....@@@@@@@@@%%%%%@@@@@@@@@@@@$$$$$$$$$$$$$%%@@@@@@@@@@$$$@@@@",
"   .........%%%%%%%%%@@@@@@@@@@@@@$$$$$$$@@@@@@@@@@@@@@@@@@$$@@@",
"   .......%%%%%%%%%%%%%@@@@@@@@@@@@@@@@@@@@@@@@@@%%%%%@@@@@@@$%%",
"   ......%%+++++@@%%%%%%@@@@@@@@@@@@@@@@@@@@@@@%%%%%%%%%@@@@@%++",
" ....++%%%%%++++@@@@@%%%%%%%@@@@@@@@@@@@@@@@%%%%%+++++++++++++++",
" ..++++++%%%$$$$@@@%$$$$$$$$$$$$$$@@@@@@@@@%%%%+++++++++++++++++",
"...++++++++%$$$$$$$$$$$$%%%%$$$$$$$$$@@@@%%%%%++++++++#####+++++",
"..+++++++++++++%$$$$$+++++++%%%%%%$$$$$$%%%%++++++++########++++",
"..++@@++++++++++++++++++++++++@@@@@@@@@@@@@+++++@@@@@@@@@@@@@++@",
"..+++@+++++++#########++++++++++@@@@@@@@@@@@++@@@@@@@@@@@@++++++",
"..+++@@+++++############+++++++@@@@@@@@@@@@@@@@@@@@@@@@@@@@@++++",
"...+@@@@@@@@@@@@@@@@@@@@@@@+++@@@@@@@@@@@@@@@@@@@@@@@@@@@@@@@@@@",
" ...@@@@@@@@@@@@@@@@@@@@@@@@@@@@@@@@@@@@%%%%%%@@@@@@@@@@@@@@@@@@",
"  ...+++++@@@@@@@@@@@@@@@@@@@@@@@%%%%%%%%%%%%%%@@@@@%%%%%%%%%@@@",
"  ..++++@@@@@@@$$@@@@$$$$@@@@@@@@@%%%%%%%%%%%@@@@%%%%%%%%%%%%%%%",
" ..+++++@@@@$$$$$$$$@@$$$%%%@@@@@@@@%%@@@%%@@@%%%%%%%%%+++++++++",
"...+++@@@@$$$$$$++++++%%%%%%%%%%@@@@@%%@@%%%%%%%%+++++++++++++++",
"..@++@@@@$$$$$++++++++++++%%%%%%%%%%%%%%%%%%%%++++++++++++++++++",
"..@@@@@$$$$$++++++++++++++++++%%%%%%%%%%%%%%%%++++++++++++++++++",
"...@@@$$$$@@@++++++++#####++++++++%%%%%%%%%++++++++++++#######++",
".....$$$$@@@@+++++#########++++++++++++++++++++++++++###########",
" ....$$++++++++++@@@@@@@@@#+++++++++++++++++++++++++####@@@@@@@@",
"   ...++++++++++@@@@@++@@@@@@+++++++++++++++++++++++@@@@@@@@@@@@",
"  ...+++++++++++@@++++++@@@@@@@@++++++++++++++++++@@@@@@@@@@@@@@",
" ...++++++++@@@@@@++++++@@@@@@@@@++++++++++++++@@@@@@@@@@@@@@@@@",
" ..+++++++++@@@@@@++@@@@@@@@@@@@@@+++@@@+++++@@+++@@@@@@@@@@@@@@",
" ..+++++++++@@@@@@@@@@@@@@@@@@@+++++@@@@@@@@@@+++@@@@@@@@@@@@@@@",
" ++++++++++@@@@@@@@@@@@@@@@@@@@@++++++@@@@@@@@@@@@@@@@@@@@@@@@@@",
" +++++++++@@@@@@@@@@@@@@@@@@@@@@@@@@@@@@@@@@@@@@@@@%%%%%%%@@@@@%",
" ++++++++@@@@%@@$$$$$$$$$$$%%%@@@@@@@@@@@@@@@@@@%%%%%%%%%+++++++",
" ++++@@@@@@%$$$$$$$$@@%%%%%%%%%%%%@@@@@@@@@@@%%%%%%%%+++++++++++",
"  +@@@@%%%..$$$$$$$$$%%%%%%%%%$$$$$%$$$$@%%%%%%%%%++++++++++++++",
"   ..........@@@+%%%%%%%+++++++$$$$%$$$$%%%%%+++++++++++++++++++",
"   .......++++@@@@@@++++++++++++++++%%%@@@@@@++++++++++++++++###",
"   .....+++++++++@@@+++++++++++++++++@@@@@@@@@@+++++++++++######",
"  ....+++++++++++++@+++++#####++++++@@@@@@@@@@@@@++@@@@@@@@###@@",
" ....++++++++++++++++++#########++@@@@@@@@@@@@@@@@@@@@@@@@@@@@@@",
" ..+++++++++++++++++@@@###@@@@@@@@@@@@@@@@%%%%%%@@@@@@@@@@@@@@@@",
" ..++++++++++++##+@@@@@#@@@@@@@@@@@@@%%%%%%%%%%%%@@@@@@@@@@@@@@@",
"...++++###+#####@@@@@@@@@@@@@@@@@@%%%%%%%%%%%%%@@@@@@@@@@@@@@@@@",
"..+++++#######@@@@@@@@@@@@@@@@@@@@@%%%%%%@@@%%@@@@@%%@@@@@@@@@@@",
"..++++++####+@@@@@@@@@@@@@@@@@@@@@@@@@@@@@@@%%@@$$$$$$@%%%@@@@@@",
"..++++++##++@@@@@@@@@@%%%%%@@@@@@@@@@@@@@@@%$$$$$$$$$$++%%%%%@@@",
"..@@+++++++@@@@@@@@@@%%%%%%%@%%%@@@@@@%@@$$$$$$$$%%++++++%%%%%%@",
"..@@++++@@@@@@@@@@@@@%%%%%%%%%%%%@@@%%%$$$$$$%%%%+++++++++++%%%%",
"..@@@@@@@@@@@@@$$$++@+@@@%%%%%%%%%%%%%...$$%%%%++++++++++++++++%",
"..@@@@@@@@@@@@$$++++@@@@@@%%+++++%%%%...++++++++++++++++++++++++",
"..@@@@@@@@@@$$$+++++@@@@@@++++++++%%....++++++++#########+++++++",
" ..@@@@@@@@$$$+++++@@@@@+++++++++%%%...++++++##########@@@@@@+++",
"  .@@@@@@@.$$+++++@@++++++++++++%%%...###++++.....@@@@@@@@@@@@@@",
"    @@@@@...++++++.....++++++%%%%%%..@##++++@@........@@@@@@@@@@",
"          ...++++........++++%%%%++..@@@++@@..... ......@@@@@@@@",
"          .................+++++@....@@@@@@@...     .....@@@@@@@",
"            .....       ....+++.......@@@@@...       ......@@@@@",
"                         ...........  @@@@@..          ........."};
