/* XPM */
static char * V3_xpm[] = {
"64 64 7 1",
" 	c None",
".	c #161C2E",
"+	c #F8F273",
"@	c #DEC87E",
"#	c #F1DA84",
"$	c #FEFA9D",
"%	c #B29678",
".....        ........  .....+++++......     .....    .....      ",
"++.....     ...@@@........++++++++###...  ........ ........     ",
"++++..........@@@@@......+++++++++++##......++++....@@@++...    ",
"+++++.........@@@@@....+++++++++++++###...+++++++..++++++++.    ",
"$++++++++....++@@@...+++++++++++++#####++++++++++..++++++++++   ",
"$$$$++++....+++@@@...++++++++$$$#####++++++++++...@+++++++++++  ",
"##$$$++....+++++#...++++++$$$$######+++++++++....+++++++++++++  ",
"#####$..$$++++++...+++++++$######++++++++++....++++++++++++++++ ",
"#########$$$$##....+++#######++++++++++++%%%%%++++++$$$$$$$++++ ",
"#############....##############+$$$+++%%%%%%%#+++++$$$$@@@@++++ ",
"###########.....#@@##############$$$%%%%%%++##+++++$@@@@@@@@++  ",
"@@@@####..%%%..#@@@@####@@@############+++++#####@@@@@@@@@@...  ",
"+@@@%%%%%%%%%###@@####@@@@@@@##########++++####@@@@++++......   ",
"+++++%%%%%%##########@@@@@@@##################@@@+++++++++...   ",
"+++++++++@@@@@@####@@@@@@@@@@@@@###########@@@@@+++++++%%%+++.. ",
"+++++++++++@@@@@@@@@@@@@@@@@@@@@@@@####@@@@@@@@++++++%%%%++++#..",
"+++++++++++++++@@@@@++++++++@@@@@@@@%%%%%%%@@++++++%%%%+++++++..",
"#+++++++++++++++++++++++++++++########%%%%%%%%%%%%%%%%++++++++#.",
"####+++++++++$$$$$$$$$++++++++++########@%%%%%%%++++++++++++###.",
"+######+++++$$$$$$$$$$$$++++++++###############++++++++++######.",
"#######++++++##############++++################################.",
"########+###############################@@@@@@###############+. ",
"#################################@@@@@@@@@@@@@@########@@+++... ",
"##################################@@@@@@@@@@@####@@@%%%%%...... ",
"########################@@@@########@@###@@###@@@@%%%%%%........",
"++@@@#####@@@@@+++++++@@@@@@@@@@#####@@##@@@@@@@@#####+++++++...",
"@@@@@@@@@@@@@+++++++++++++@@@@@@@@@@@@@@@@@@@@++++++++++++++++@.",
"+++@@@@@###+++++++++++++++++++@@@@@@@@@@%%%%%##++++++++++++++++@",
"+++++########++++++++$$$$$++++++++@@@%%%%%#####++++++++++++++++@",
"++++#########+++++$$$$$$$$$++++++++++++%######+++++++++$$$+++++@",
"+#######@@@@##+++#########$++++++++++++####++++++++++$$$$$####. ",
"######@@@@@@@################++++++++++##+++++++$$$$$$$###..... ",
"#@@#####@@@@@###################++++++++++++#####$$#####....... ",
"#@@@##@@@@@######################++++++++++########%%%%....+++..",
"####@@@@@@########################+++++++++####%%%%%%%%...+++++.",
"###@@@@@@@##@@@################++++++++++++%%%%%%%%%..++++++++++",
"@@@@@@@@@@##@@@@################++++++#%%%%%%%%%++++++++++++++++",
"@@@++@@@@@@##@@@###########################++++++++++++++####+++",
"++++++++@@@@############%%%%%%%%%##########++++++##############.",
"+++++++++@@@@@######@%%%%%%%%%%%%%%##########++++#############..",
"++++++++++++++++@@@@@@%%%@@@@@@%%%%%########++++++++..######....",
"+++++++++++++++++@@@@@@@+++++++@@%%%%@@@@###++++++++++++....... ",
"$$+++++++++++++++++++++++++++++++++++++++++++++++++++++++++.... ",
"$$$$$++++++++++++++++++++++++++++++++++++++++++++++++++++++++.. ",
"###$$++++++++++++++++++++$$$$$++++++++++++++#++++++++++++++++++.",
"########+++++++++++++++$$$$$$$$$++###############+++++++++++++++",
"###########++++++++++$$$$$################@@@@@@#+++++++++++++++",
"########++++####++++$$$$#############@@@@@@@@@@@@######+++++++++",
"#######++++##++++@@@@@@@##########@@@@@@@@@@@@@###########++++++",
"###############+@@@@###############@@@@@@###@@#####@@##.##++++##",
"###############@@@#####################@#####@###@@@@@#...######",
"###########@@#@@@###################......%##@@@@@@@+++....#### ",
"#@@@++@@@@@@@@@@@################...........%%@@@@@+++++....... ",
"@@@++++@@@@@@@@@@@@@########%%%.....+++.......%##+++++++++....  ",
"###+++++++@@@@@@@@@@%%%%%%%%%%++++++++++++.....####+++++++..    ",
"##+++++++%%%%+@@@@@@%%%%######++++++++++++++....####+++++...    ",
"++++++++%%%+++++@@@@++++##########++++++++++++...###++++...     ",
"++++++++%%++++++++++++++++############++++++++.............     ",
"#+++++.%++++++++++++++++++@@@##++####...+++++++...........      ",
"####...++++++++++++++++####...#++++###....++++++..              ",
"###....+++++++++++++###........++++###.....+++...               ",
"##......+++++++++##......... ...++++#...........                ",
"#..  .....++++++.........      .++++..    .....                 ",
"..    ..............                                            "};
