/* XPM */
static char * C2_xpm[] = {
"64 64 154 2",
"  	c None",
". 	c #E9F044",
"+ 	c #161C2E",
"@ 	c #2D2930",
"# 	c #745D3B",
"$ 	c #987A44",
"% 	c #957843",
"& 	c #3A3132",
"* 	c #191D2E",
"= 	c #B18E4B",
"- 	c #CEA953",
"; 	c #DCCE4D",
"> 	c #D0AB53",
", 	c #CEA554",
"' 	c #C29953",
") 	c #8C6C45",
"! 	c #2C2631",
"~ 	c #745E3B",
"{ 	c #D4BD4F",
"] 	c #E8EC45",
"^ 	c #DCCF4C",
"/ 	c #CFA953",
"( 	c #C59B55",
"_ 	c #956A4E",
": 	c #23212F",
"< 	c #29272F",
"[ 	c #BDAD47",
"} 	c #E8EE45",
"| 	c #E8EE44",
"1 	c #CCA354",
"2 	c #976D4F",
"3 	c #2B2530",
"4 	c #181D2E",
"5 	c #191F2E",
"6 	c #383C2F",
"7 	c #3A3E2F",
"8 	c #E4EA44",
"9 	c #E8EF4E",
"0 	c #BFA753",
"a 	c #9E9642",
"b 	c #C9CF3F",
"c 	c #D0D640",
"d 	c #E1DC49",
"e 	c #BF9456",
"f 	c #845F48",
"g 	c #94694F",
"h 	c #A77756",
"i 	c #61463D",
"j 	c #937643",
"k 	c #414232",
"l 	c #DDE355",
"m 	c #4D5132",
"n 	c #E6EC56",
"o 	c #F6F7D9",
"p 	c #B38B72",
"q 	c #655048",
"r 	c #474531",
"s 	c #DCD947",
"t 	c #CAD03F",
"u 	c #B4944B",
"v 	c #C19855",
"w 	c #C49B54",
"x 	c #AE7D58",
"y 	c #AC7A58",
"z 	c #966A4F",
"A 	c #23222F",
"B 	c #373730",
"C 	c #D4C74B",
"D 	c #56574A",
"E 	c #F5F5F2",
"F 	c #595B53",
"G 	c #EEF1BD",
"H 	c #FFFFFF",
"I 	c #FBF8F7",
"J 	c #ACA092",
"K 	c #705A3A",
"L 	c #B08F4A",
"M 	c #76653A",
"N 	c #484631",
"O 	c #CACE40",
"P 	c #E2DF49",
"Q 	c #D3B951",
"R 	c #A97857",
"S 	c #3B3F2F",
"T 	c #E5EB43",
"U 	c #B0B550",
"V 	c #D8D9D9",
"W 	c #87888B",
"X 	c #B4B790",
"Y 	c #F4F7C0",
"Z 	c #CEC697",
"` 	c #C9A353",
" .	c #7A683B",
"..	c #414230",
"+.	c #8A8D36",
"@.	c #A3A839",
"#.	c #ACB13A",
"$.	c #DCCF4D",
"%.	c #BD9156",
"&.	c #414530",
"*.	c #E3EA43",
"=.	c #AFB53C",
"-.	c #30333D",
";.	c #A6AB39",
">.	c #535433",
",.	c #DFDC51",
"'.	c #E5EB44",
").	c #D5D349",
"!.	c #A6A93B",
"~.	c #424630",
"{.	c #838835",
"].	c #E7EE44",
"^.	c #BE9156",
"/.	c #7C5946",
"(.	c #888D36",
"_.	c #DCE342",
":.	c #494D30",
"<.	c #ABB058",
"[.	c #F8FAD9",
"}.	c #DDDB5B",
"|.	c #B28957",
"1.	c #986F4F",
"2.	c #B8B345",
"3.	c #B2B73B",
"4.	c #E5EA45",
"5.	c #BB9055",
"6.	c #342A32",
"7.	c #BBBCB8",
"8.	c #FFFFFE",
"9.	c #F3F7BA",
"0.	c #E7ED45",
"a.	c #DBD84A",
"b.	c #DCDA4A",
"c.	c #D6BF50",
"d.	c #A9844C",
"e.	c #AAAF50",
"f.	c #EAF157",
"g.	c #393231",
"h.	c #C2BD43",
"i.	c #E8ED45",
"j.	c #D6BD50",
"k.	c #332E30",
"l.	c #997D44",
"m.	c #CAA552",
"n.	c #CBA453",
"o.	c #C8A152",
"p.	c #393131",
"q.	c #1A1E2E",
"r.	c #342E30",
"s.	c #DCE242",
"t.	c #D0D740",
"u.	c #E8EF44",
"v.	c #B2B83B",
"w.	c #CFD540",
"                                                                                                                                ",
"                                                                                                                                ",
"                                                                                                                                ",
"                                                                                                                                ",
"                                                                                                                                ",
"                                                                                                                                ",
"                                                                                                                                ",
"                                                                                                                                ",
"                                                                                                                                ",
"                                                                                                                                ",
"                                                                                                                                ",
"                                                                                                                                ",
"                                                                                                                                ",
"                                                                                                                                ",
"                                                                                                                                ",
"                                                                                                                                ",
"                                                                                                                                ",
"                                                            . . . . .                                                           ",
"                                                      . . . . . . . . . . .                                                     ",
"                                                  . . . . . . . . . . . . . . .                                                 ",
"                                                . . . .                   . . . .                                               ",
"                                              . . .                           . . .                                             ",
"                                            . . .                               . . .                                           ",
"                                          . . .                                   . . .                                         ",
"                                        . . .               + + +                   . . .                                       ",
"                                        . .             @ # $ $ $ % & *               . .                                       ",
"                                      . . .           @ = - ; ; > , ' ) !             . . .                                     ",
"                                      . .           + ~ { ] . . ] ^ / ( _ : +           . .                                     ",
"                                      . .           < [ } | | . . . ^ 1 2 ! 3 4         . .                                     ",
"                                    . . .       5 6 7 8 9 0 a b c . d e f g h i         . . .                                   ",
"                                    . . .   @ j k l m n o p q r s t u v w x y z A       . . .                                   ",
"                                    . . .   B C D E F G H I J K L M N O P Q x R !       . . .                                   ",
"                                    . . .   S T U V W X Y Z `  ...+.@.#.. $.%.z A       . . .                                   ",
"                                    . . .   &.*.=.-.  7 ;.>.,.'.).!.~.{.].; ^./.+       . . .                                   ",
"                                      . .     (._.:.    + <.[.}.|.1.2.3.4.> 5.6.        . .                                     ",
"                                      . .     5 6       + 7.8.9.0.a.b.} c., d.!         . .                                     ",
"                                      . . .               e.9.f.. . } c., = g.        . . .                                     ",
"                                        . .               7 h.P i.P j., = k.          . .                                       ",
"                                        . . .               k.l.m.n.o.$ p.          . . .                                       ",
"                                          . . .               q.r.r.r.q.          . . .                                         ",
"                                            . . .                               . . .                                           ",
"                                              . . .                           . . .                                             ",
"                                                . . . .                   . . . .                                               ",
"                                                  . . . . . . . s.c t.].u.. u.u.                                                ",
"                                                      . . . . . . . . u.].t.v.                                                  ",
"                                                            u.c w.w.w.v.                                                        ",
"                                                                                                                                ",
"                                                                                                                                ",
"                                                                                                                                ",
"                                                                                                                                ",
"                                                                                                                                ",
"                                                                                                                                ",
"                                                                                                                                ",
"                                                                                                                                ",
"                                                                                                                                ",
"                                                                                                                                ",
"                                                                                                                                ",
"                                                                                                                                ",
"                                                                                                                                ",
"                                                                                                                                ",
"                                                                                                                                ",
"                                                                                                                                ",
"                                                                                                                                ",
"                                                                                                                                "};
