/* XPM */
static char * C3_xpm[] = {
"128 128 6 1",
" 	c None",
".	c #161C2E",
"+	c #CEA554",
"@	c #E9F044",
"#	c #FFFFFF",
"$	c #AC7A58",
"                                                                                                                                ",
"                                                                                                                                ",
"                                                                                                                                ",
"                                                                                                                                ",
"                                                                                                                                ",
"                                                                                                                                ",
"                                                                                                                                ",
"                                                                                                                                ",
"                                                                                                                                ",
"                                                                                                                                ",
"                                                                                                                                ",
"                                                                                                                                ",
"                                                                                                                                ",
"                                                                                                                                ",
"                                                                                                                                ",
"                                                                                                                                ",
"                                                                                                                                ",
"                                                                                                                                ",
"                                                                                                                                ",
"                                                                                                                                ",
"                                                                                                                                ",
"                                                                                                                                ",
"                                                                                                                                ",
"                                                                                                                                ",
"                                                                                                                                ",
"                                                                                                                                ",
"                                                                                                                                ",
"                                                                                                                                ",
"                                                                                                                                ",
"                                                                                                                                ",
"                                                                                                                                ",
"                                                                                                                                ",
"                                                 ..         +++++                                                               ",
"                                                ....    +++++++++                                                               ",
"                                               ..++.. ++++++                                                                    ",
"                                              ...++......                     +                                                 ",
"                                             ..@@+++......                    +                                                 ",
"                                            ...@@@++.......                     ++                                              ",
"                                            ..@@@@@....@........                +++                                             ",
"                                           ...@@++@...@@..........                ++                                            ",
"                                           ..@@@++...##...++++++....               ++                                           ",
"                                          ..@@@@@...##...++++++++.....              ++                                          ",
"                                          ..@@@....###..++@@+++++++....              ++                                         ",
"                                          ..@@.....##...@@@@@@++++++....              ++                                        ",
"                                         +.............@@@@@@@@++++++....              ++                                       ",
"                                         +....  ......@@@@@@@@@@@+++++$...              ++                                      ",
"                                        +          ..@####@@@@@@@@@@++$$....             +                                      ",
"                                        +         ...@######@@@@@@@@@++$$$...            ++                                     ",
"                                                 ....########@@@@@@@@@+$$$$...            ++                                    ",
"                                                 ...@#####$$$@@@@@@@@@++$$$$..             +                                    ",
"                                                 ...@####$$$..@@@@@@@@+++$$$...            +                                    ",
"                                                 ...@@####$$....@@@@@@++++$$$..            ++                                   ",
"                                                 ..@@@@@##.......@@@@@@+++$$$$..            +                                   ",
"                                                 ..@@@@@@......@@@@@@@@+++$$$$..            ++                                  ",
"                                                 ....@@@@...+..@@@@@@@@+++$$$$$..            +                                  ",
"                                                  ...@@@@..+++.@@@@@@@@+++$$$$$..            +                                  ",
"                                                  ...@@@@...++++@@@@@@@@++$$$$$..            +                                  ",
"                                   +               ...@@@..........+++++$$$$$$....           ++                                 ",
"                                   +              ....@@++..........++$$$$$$$$.....           +                                 ",
"                                   +             .....@++++@@@......++++$$$$$.......          +                                 ",
"                                   +            ...@@@@@@++@@@...++..+++++$$$$$$$...          +                                 ",
"                                   +           ...@###@@@@@@@@@..@...@@@@++$$$$$$....         +                                 ",
"                                   +           ..@#####@@$@@@@@@@@...@@@@++$$$$$$$...         +                                 ",
"                                   +           ..@#####@$$$$@@@......@@@@@++$$$$$$...         +                                 ",
"                                   +          ...@####@@@$$$$.......@@@@@@++$$$$$$...         +                                 ",
"                                   +          ...@###@@@@@@$$$$$$..@@@@@@@++$$$$$$...         +                                 ",
"                                   +          ...@@#@@@@@@@$$$$$@@.@@@@@@+++$$$$$....         +                                 ",
"                                   ++         ...@@@@@@@@@@$$$$@@@@@@@@@@+++$$$$....         ++                                 ",
"                                    +         ...+@@@@@@@@@@$$@@@@@@@@@@++++$$$$....         +                                  ",
"                                    +          ..++@@@@@@@@@$$@@@@@@@@@++++$$$$....          +                                  ",
"                                    +          ..+++@@@@@@@@@@@@@@@@@@+++++$$$....           +                                  ",
"                                    ++          ..++@@@@@@@@@@@@@@@@++++++$$$...            ++                                  ",
"                                     +          ..++++@@@@@@@@@@@@+++++++$$....             +                                   ",
"                                     ++          ..+++++++@@@@@+++++++++$$....                                                  ",
"                                      +          ...+++++++++++++++++++$$....                                                   ",
"                                      +           ...++++++++++++++++++.....                                                    ",
"                                      ++           ....++++++++++++++......                                                     ",
"                                       ++           ....+++++++++$$.....                                                        ",
"                                        +             ................                                                          ",
"                                        ++             ............                                                             ",
"                                         ++               .....                                                                 ",
"                                          ++                                                                                    ",
"                                           +                                                                                    ",
"                                                                                                                                ",
"                                                                                                                                ",
"                                                                                                                                ",
"                                                +                               +                                               ",
"                                                + +                            ++                                               ",
"                                                  ++++                      ++++                                                ",
"                                                   +++++                  +++++                                                 ",
"                                                      ++++++          ++++++                                                    ",
"                                                        ++++++++++++++++++                                                      ",
"                                                            ++++++++++                                                          ",
"                                                                                                                                ",
"                                                                                                                                ",
"                                                                                                                                ",
"                                                                                                                                ",
"                                                                                                                                ",
"                                                                                                                                ",
"                                                                                                                                ",
"                                                                                                                                ",
"                                                                                                                                ",
"                                                                                                                                ",
"                                                                                                                                ",
"                                                                                                                                ",
"                                                                                                                                ",
"                                                                                                                                ",
"                                                                                                                                ",
"                                                                                                                                ",
"                                                                                                                                ",
"                                                                                                                                ",
"                                                                                                                                ",
"                                                                                                                                ",
"                                                                                                                                ",
"                                                                                                                                ",
"                                                                                                                                ",
"                                                                                                                                ",
"                                                                                                                                ",
"                                                                                                                                ",
"                                                                                                                                ",
"                                                                                                                                ",
"                                                                                                                                ",
"                                                                                                                                ",
"                                                                                                                                ",
"                                                                                                                                ",
"                                                                                                                                ",
"                                                                                                                                ",
"                                                                                                                                "};
