/* XPM */
static char * C4_xpm[] = {
"64 64 183 2",
"  	c None",
". 	c #1B202E",
"+ 	c #4B4F30",
"@ 	c #383C2F",
"# 	c #DCE342",
"$ 	c #AFB43B",
"% 	c #848835",
"& 	c #191F2E",
"* 	c #1A202E",
"= 	c #ABAF3B",
"- 	c #DDD24C",
"; 	c #E4EA44",
"> 	c #858736",
", 	c #2D2930",
"' 	c #161C2E",
") 	c #353530",
"! 	c #997D44",
"~ 	c #D6C94B",
"{ 	c #CDA753",
"] 	c #957843",
"^ 	c #868689",
"/ 	c #B9B9BA",
"( 	c #484A49",
"_ 	c #3C3431",
": 	c #937643",
"< 	c #342E30",
"[ 	c #434730",
"} 	c #A9AE3A",
"| 	c #ACB13A",
"1 	c #444730",
"2 	c #505249",
"3 	c #D9D9DA",
"4 	c #CDD191",
"5 	c #7E8234",
"6 	c #3A3E2F",
"7 	c #3B3F2F",
"8 	c #29272F",
"9 	c #878B35",
"0 	c #E3EA43",
"a 	c #E9F044",
"b 	c #EFF493",
"c 	c #F4F7C0",
"d 	c #EBF097",
"e 	c #E2E844",
"f 	c #9E874D",
"g 	c #403C32",
"h 	c #2C302F",
"i 	c #838735",
"j 	c #B0B550",
"k 	c #EEF1BA",
"l 	c #E6EC56",
"m 	c #E4E944",
"n 	c #B5944B",
"o 	c #9C8144",
"p 	c #E0E643",
"q 	c #D0D641",
"r 	c #F5F8C3",
"s 	c #FFFFFF",
"t 	c #FEFEF9",
"u 	c #EAF15F",
"v 	c #DCCF4C",
"w 	c #B18E4B",
"x 	c #28262F",
"y 	c #191D2E",
"z 	c #79673B",
"A 	c #E5EB4E",
"B 	c #F9FBDE",
"C 	c #F4F7BD",
"D 	c #E8EE45",
"E 	c #D0AB53",
"F 	c #484631",
"G 	c #414130",
"H 	c #828542",
"I 	c #D9CABD",
"J 	c #DBCBC3",
"K 	c #EDE7E1",
"L 	c #EFF494",
"M 	c #E7EC45",
"N 	c #745D3B",
"O 	c #745E3B",
"P 	c #CCA852",
"Q 	c #E8EE4F",
"R 	c #F4F8C0",
"S 	c #EDF194",
"T 	c #DDDC49",
"U 	c #DFDC48",
"V 	c #927543",
"W 	c #464431",
"X 	c #99704F",
"Y 	c #AD7E58",
"Z 	c #C6AB95",
"` 	c #E8EF4F",
" .	c #E8ED45",
"..	c #CFA953",
"+.	c #987A44",
"@.	c #2C2930",
"#.	c #B3904C",
"$.	c #DCCE4D",
"%.	c #CFC34E",
"&.	c #BFA553",
"*.	c #E6EC44",
"=.	c #B3934B",
"-.	c #CDC24E",
";.	c #D9D54B",
">.	c #C3AD52",
",.	c #E7ED45",
"'.	c #CAA253",
").	c #A97957",
"!.	c #8B8D38",
"~.	c #E1E743",
"{.	c #BAAA47",
"].	c #4C4433",
"^.	c #CAD03F",
"/.	c #E8EE44",
"(.	c #E2DF49",
"_.	c #CFA754",
":.	c #CCBF4F",
"<.	c #AA7C56",
"[.	c #342B32",
"}.	c #DEDA48",
"|.	c #937842",
"1.	c #E8EF44",
"2.	c #D6BD50",
"3.	c #CCA353",
"4.	c #765F3C",
"5.	c #332E30",
"6.	c #C8A152",
"7.	c #E2DE49",
"8.	c #B28957",
"9.	c #AA9A49",
"0.	c #3A3731",
"a.	c #393D2F",
"b.	c #3F3C31",
"c.	c #B4924C",
"d.	c #C79F55",
"e.	c #D4BB50",
"f.	c #DCCF4D",
"g.	c #DBCD4D",
"h.	c #CDA654",
"i.	c #181D2E",
"j.	c #9A7C45",
"k.	c #CEA554",
"l.	c #BEBB44",
"m.	c #CBD13F",
"n.	c #E1DD49",
"o.	c #BF9456",
"p.	c #AE7D58",
"q.	c #BD9156",
"r.	c #AB7B57",
"s.	c #362E32",
"t.	c #AD7B58",
"u.	c #AC7A58",
"v.	c #A97857",
"w.	c #7E5A47",
"x.	c #23222F",
"y.	c #77603C",
"z.	c #D6BF50",
"A.	c #C59A55",
"B.	c #AB7A57",
"C.	c #835D48",
"D.	c #60463D",
"E.	c #171C2E",
"F.	c #1A1E2E",
"G.	c #755F3C",
"H.	c #AC864D",
"I.	c #CDA354",
"J.	c #AE7C58",
"K.	c #94694F",
"L.	c #23212F",
"M.	c #2C2631",
"N.	c #A17A4D",
"O.	c #CAA153",
"P.	c #A77756",
"Q.	c #2B2530",
"R.	c #272430",
"S.	c #393132",
"T.	c #815D46",
"U.	c #A97956",
"V.	c #AA7A57",
"W.	c #AC7B57",
"X.	c #AA7957",
"Y.	c #966A4F",
"Z.	c #171D2E",
"                                                                                                                                ",
"                                                                                                                                ",
"                                                                                                                                ",
"                                                                                                                                ",
"                                                                                                                                ",
"                                                                                                                                ",
"                                                                                                                                ",
"                                                                                                                                ",
"                                                                                                                                ",
"                                                                                                                                ",
"                                                                                                                                ",
"                                                                                                                                ",
"                                                                                                                                ",
"                                                                                                                                ",
"                                                                                                                                ",
"                                                                                                                                ",
"                                                                                                                                ",
"                                                                                                                                ",
"                                                                                                                                ",
"                                                                            . + .                                               ",
"                                                                            @ # $ % &                                           ",
"                                                                            * = - ; > ,                                         ",
"                                                                            ' ) ! ~ { ]                                         ",
"                                                                    ' ' ' ' ^ / ( _ : <                                         ",
"                                                                & [ } | } 1 2 3 4 5 '                                           ",
"                                                    & 6 7 6 8 & 9 0 a b c d e f g h '                                           ",
"                                                & i j k l m n o p 0 q r s t u v w x                                             ",
"                                              y z A B s C D E w F G H I J K L M { N                                             ",
"                                              O P Q C R S T U F V w W X Y Z `  ...+.'                                           ",
"                                            @.#.$.a a a %.&.*.| _ =.m -.;.>.,. ...+.'                                           ",
"                                            < '.$.a a a %.).!.~.{.].^. .a /.a (._.+.                                            ",
"                                            < '.E D a /.:.<.[.| }.|.! v 1.a 1.2.3.4.                                            ",
"                                            5.6._.7.a ,.8.&.9.0.a.b.c.d.e.f.g.h.w @.                                            ",
"                                            i.j.k...v  .,./.,.l.| m.n.o.p.q.q.r.s.                                              ",
"                                              O '.k.k.v a a a a a a M d.t.u.v.w.x.                                              ",
"                                              y y.'.k...v M 1.a a D z.A.B.C.D.E.                                                ",
"                                                F.G.H.I.k...2.v v 2.A.J.u.K.L.'                                                 ",
"                                                    M.N.O.I.I.I.I.A.J.u.u.P.Q.                                                  ",
"                                                      R.S.T.U.V.W.t.u.X.Y.D.Z.                                                  ",
"                                                          i.M.M.D.w.w.D.L.'                                                     ",
"                                                                  ' ' '                                                         ",
"                                                                                                                                ",
"                                                                                                                                ",
"                                                                                                                                ",
"                                                                                                                                ",
"                                                                                                                                ",
"                                                                                                                                ",
"                                                                                                                                ",
"                                                                                                                                ",
"                                                                                                                                ",
"                                                                                                                                ",
"                                                                                                                                ",
"                                                                                                                                ",
"                                                                                                                                ",
"                                                                                                                                ",
"                                                                                                                                ",
"                                                                                                                                ",
"                                                                                                                                ",
"                                                                                                                                ",
"                                                                                                                                ",
"                                                                                                                                ",
"                                                                                                                                ",
"                                                                                                                                ",
"                                                                                                                                "};
