/* XPM */
static char * C5_xpm[] = {
"64 64 192 2",
"  	c None",
". 	c #191F2E",
"+ 	c #3A3E2F",
"@ 	c #3B3F2F",
"# 	c #414530",
"$ 	c #393D2F",
"% 	c #ACB13A",
"& 	c #E3EA43",
"* 	c #E5EC43",
"= 	c #E5EC4E",
"- 	c #E4EA57",
"; 	c #ADB251",
"> 	c #3D403F",
", 	c #161C2E",
"' 	c #1A1F30",
") 	c #3E4049",
"! 	c #1B2031",
"~ 	c #A6AB39",
"{ 	c #32362F",
"] 	c #31352F",
"^ 	c #C7CC3F",
"/ 	c #E6EC44",
"( 	c #CBD13F",
"_ 	c #E7EE4E",
": 	c #F9FBDD",
"< 	c #FEFEFB",
"[ 	c #DEDEDC",
"} 	c #848842",
"| 	c #3D4048",
"1 	c #F1F1F1",
"2 	c #8F9092",
"3 	c #A0973F",
"4 	c #E5EA45",
"5 	c #878C35",
"6 	c #1B202E",
"7 	c #755F3B",
"8 	c #CDAA52",
"9 	c #7A683B",
"0 	c #363630",
"a 	c #967B43",
"b 	c #8A8C44",
"c 	c #DDDCDA",
"d 	c #DCCDC6",
"e 	c #DCCEC6",
"f 	c #FDFDFA",
"g 	c #EBF093",
"h 	c #868937",
"i 	c #BCBDBE",
"j 	c #DEDEDF",
"k 	c #7A6548",
"l 	c #CDAC51",
"m 	c #E2E744",
"n 	c #424230",
"o 	c #383730",
"p 	c #3C3431",
"q 	c #B5944B",
"r 	c #E5E945",
"s 	c #838735",
"t 	c #322D30",
"u 	c #C9A252",
"v 	c #C3BD44",
"w 	c #BEBA4F",
"x 	c #B1865F",
"y 	c #D9C8BE",
"z 	c #FCFCF6",
"A 	c #EAF15F",
"B 	c #DFDD47",
"C 	c #857559",
"D 	c #F0F2D8",
"E 	c #888C43",
"F 	c #ADAF3C",
"G 	c #E1DD49",
"H 	c #B2904B",
"I 	c #2C2930",
"J 	c #858943",
"K 	c #CCD253",
"L 	c #D9CD4C",
"M 	c #CBA453",
"N 	c #D6BD50",
"O 	c #E8EF44",
"P 	c #2B2F2F",
"Q 	c #77613C",
"R 	c #D7CC4B",
"S 	c #E9F044",
"T 	c #DBD94B",
"U 	c #DEDD62",
"V 	c #EFF493",
"W 	c #E9F045",
"X 	c #E2DF49",
"Y 	c #9B7F45",
"Z 	c #ACB246",
"` 	c #DEE542",
" .	c #7A6B3B",
"..	c #B4924C",
"+.	c #CAA253",
"@.	c #765F3C",
"#.	c #191E2E",
"$.	c #878B37",
"%.	c #F0F4C0",
"&.	c #FDFEF6",
"*.	c #E8EE58",
"=.	c #DFDA4A",
"-.	c #DDD14C",
";.	c #E7EE44",
">.	c #CDD43F",
",.	c #C9CF3F",
"'.	c #878B35",
").	c #414230",
"!.	c #C3BE44",
"~.	c #DCCE4D",
"{.	c #C9A152",
"].	c #464032",
"^.	c #28262F",
"/.	c #77603C",
"(.	c #957843",
"_.	c #76653A",
":.	c #E5EB56",
"<.	c #FDFEF4",
"[.	c #FEFEF8",
"}.	c #F4F8C0",
"|.	c #D0C657",
"1.	c #B18557",
"2.	c #C8BA4E",
"3.	c #8D9137",
"4.	c #E4E944",
"5.	c #7E8335",
"6.	c #987A44",
"7.	c #CFA953",
"8.	c #E2DE49",
"9.	c #E8ED45",
"0.	c #6F5A3A",
"a.	c #181D2E",
"b.	c #27262F",
"c.	c #E2DF4A",
"d.	c #EAF157",
"e.	c #E7ED45",
"f.	c #CDC14F",
"g.	c #AC7D57",
"h.	c #61473D",
"i.	c #2A2F2F",
"j.	c #7D8035",
"k.	c #988042",
"l.	c #373730",
"m.	c #A59C40",
"n.	c #CFAA53",
"o.	c #C7A054",
"p.	c #CEA654",
"q.	c #CDA454",
"r.	c #A57D4F",
"s.	c #5D443C",
"t.	c #342E30",
"u.	c #E8EE44",
"v.	c #AE7E58",
"w.	c #99734E",
"x.	c #3F4030",
"y.	c #DBCD4D",
"z.	c #B78857",
"A.	c #B68757",
"B.	c #AC7A58",
"C.	c #7E5A47",
"D.	c #B3904C",
"E.	c #DCCF4C",
"F.	c #E8EC45",
"G.	c #CFC34E",
"H.	c #E6EB45",
"I.	c #BE9256",
"J.	c #735D3B",
"K.	c #CEA554",
"L.	c #D0AB53",
"M.	c #CFA854",
"N.	c #A97857",
"O.	c #60463D",
"P.	c #CDA354",
"Q.	c #CFA754",
"R.	c #CCA354",
"S.	c #BE9156",
"T.	c #AD7B58",
"U.	c #966A4F",
"V.	c #171D2E",
"W.	c #302A30",
"X.	c #815E46",
"Y.	c #AA844D",
"Z.	c #C39954",
"`.	c #B38556",
" +	c #AA7A57",
".+	c #A77756",
"++	c #332A32",
"@+	c #23212F",
"#+	c #282430",
"$+	c #342C31",
"%+	c #302A31",
"&+	c #2C2631",
"                                                                                                                                ",
"                                                                                                                                ",
"                                                                                                                                ",
"                                                                                                                                ",
"                                                                                                                                ",
"                                                                                                                                ",
"                                                                                                                                ",
"                                                                                                                                ",
"                                                                                                                                ",
"                                                                                                                                ",
"                                                                                                                                ",
"                                                                                                                                ",
"                                                                                                                                ",
"                                                                                                                                ",
"                                                                                                                                ",
"                                                                                                                                ",
"                                                                                                                                ",
"                                                                                                                                ",
"                                                                                                                                ",
"                                                                                                                                ",
"                                                                                                                                ",
"                                                                                                                                ",
"                                                                                                                                ",
"                                                                                                                                ",
"                                                                                                                                ",
"                                                                                                                                ",
"                                                                                                                                ",
"                                                                                                                                ",
"                                                                                                                                ",
"                                                                                                                                ",
"                                                                                                                                ",
"                                                                                                                                ",
"                                                                                                                                ",
"                                                              . + @ @ @ #                                                       ",
"                                                            $ % & * * = - ; > , ' ) ! $ ~ {                                     ",
"                                                          ] ^ / ( ( _ : < < [ } | 1 2 3 4 5 6                                   ",
"                                                        , 7 8 9 0 a b c d e f g h i j k l m n                                   ",
"                                                  , $ o p q r s t u v w x y z A B C D E F G H I                                 ",
"                                              . J ; K L M N O % P Q R S T U V W X Y Z `  ...+.@.                                ",
"                                            #.$.%.< &.*.=.-.;.>.,.'.).!.X S S S ~.{.].$ #.^./.(.                                ",
"                                          , _.:.<.[.}.|.1.2.3.,.>.4.5.6.7.8.9.8.7.+.0.,     a.b.                                ",
"                                          ^...c.d.d.W e.f.g.h.i.j.k.l.m.~.n.o.p.q.r.s.,                                         ",
"                                          t.+.~.S S S u.f.v.w.x.+ + 5 * S y.z.A.A.B.C.,                                         ",
"                                          I D.7.E.F.S u.G.G.H.* * * ;.S S ~.I.B.B.B.C.,                                         ",
"                                          , J.+.K.L.~.X 9.O S S S S S F.E.M.A.B.B.N.O.,                                         ",
"                                            a.J.D.P.K.Q.7.N E.E.E.E.~.n.R.S.T.N.U.O.V.                                          ",
"                                              , W.X.Y.Z.+.+.+.+.+.+.Z.`. +.+C.++@+,                                             ",
"                                                  , #+$+t.t.t.t.t.t.%+&+&+&+a.,                                                 ",
"                                                                                                                                ",
"                                                                                                                                ",
"                                                                                                                                ",
"                                                                                                                                ",
"                                                                                                                                ",
"                                                                                                                                ",
"                                                                                                                                ",
"                                                                                                                                ",
"                                                                                                                                ",
"                                                                                                                                ",
"                                                                                                                                ",
"                                                                                                                                ",
"                                                                                                                                ",
"                                                                                                                                ",
"                                                                                                                                ",
"                                                                                                                                "};
