/* XPM */
static char * C6_xpm[] = {
"64 64 196 2",
"  	c None",
". 	c #2C312F",
"+ 	c #2D312F",
"@ 	c #161C2E",
"# 	c #7E8334",
"$ 	c #C8CE3F",
"% 	c #ABB03B",
"& 	c #AAAE3B",
"* 	c #77633B",
"= 	c #2D2930",
"- 	c #C7CC3F",
"; 	c #D7C24F",
"> 	c #DBCD4D",
", 	c #CCA453",
"' 	c #927643",
") 	c #1B2031",
"! 	c #4D4D49",
"~ 	c #987B45",
"{ 	c #C9A252",
"] 	c #B18E4B",
"^ 	c #332E30",
"/ 	c #3F414A",
"( 	c #F3F4F4",
"_ 	c #BCBDBE",
": 	c #54524A",
"< 	c #363630",
"[ 	c #30333E",
"} 	c #DBDBDC",
"| 	c #FAFAFA",
"1 	c #EBEFBA",
"2 	c #A5AB39",
"3 	c #838836",
"4 	c #ADB24F",
"5 	c #ACB13B",
"6 	c #888D43",
"7 	c #51544A",
"8 	c #44443F",
"9 	c #2C302F",
"0 	c #393D2F",
"a 	c #C9CF3F",
"b 	c #EDF297",
"c 	c #FDFEF6",
"d 	c #F5F8C3",
"e 	c #F2F6C0",
"f 	c #EAED93",
"g 	c #997F43",
"h 	c #181D2E",
"i 	c #1B202E",
"j 	c #ACB13A",
"k 	c #E9F044",
"l 	c #F4F8C0",
"m 	c #FFFFFF",
"n 	c #FCFCFB",
"o 	c #FEFFFD",
"p 	c #EFF398",
"q 	c #D2BB4F",
"r 	c #77603C",
"s 	c #191D2E",
"t 	c #444830",
"u 	c #E3EA43",
"v 	c #E5EC43",
"w 	c #F0F3BD",
"x 	c #EBE3DF",
"y 	c #B9937D",
"z 	c #FBFBF4",
"A 	c #EAF157",
"B 	c #DDD04C",
"C 	c #C8A152",
"D 	c #3C3931",
"E 	c #B29F48",
"F 	c #C1BD43",
"G 	c #484640",
"H 	c #987058",
"I 	c #C5A996",
"J 	c #EEF297",
"K 	c #E9F045",
"L 	c #E7EC45",
"M 	c #CBA652",
"N 	c #342E30",
"O 	c #D8CB4C",
"P 	c #CAA153",
"Q 	c #3C3431",
"R 	c #3B3331",
"S 	c #AE8D4A",
"T 	c #886947",
"U 	c #AF8257",
"V 	c #E6EB45",
"W 	c #D0D491",
"X 	c #F4F7BD",
"Y 	c #E3E152",
"Z 	c #D2B94F",
"` 	c #6F5A3A",
" .	c #D7CA4C",
"..	c #E5EA45",
"+.	c #CFC34E",
"@.	c #DDDC49",
"#.	c #DCCF4C",
"$.	c #CAA253",
"%.	c #C9CF4A",
"&.	c #F9FBE0",
"*.	c #FEFEFB",
"=.	c #E9EF58",
"-.	c #DEDB48",
";.	c #4A4B31",
">.	c #1A1F2E",
",.	c #76653A",
"'.	c #CAD03F",
").	c #E8EE45",
"!.	c #E8EC45",
"~.	c #D0AB53",
"{.	c #C9A153",
"].	c #414230",
"^.	c #E6EC57",
"/.	c #FDFEF4",
"(.	c #CFC458",
"_.	c #CCC04E",
":.	c #DDE342",
"<.	c #535731",
"[.	c #7D8035",
"}.	c #3F3C31",
"|.	c #CCA852",
"1.	c #DACC4D",
"2.	c #D4BC50",
"3.	c #C59A55",
"4.	c #AB7B56",
"5.	c #2D2731",
"6.	c #967B43",
"7.	c #E2DF4A",
"8.	c #EAF156",
"9.	c #DBD84A",
"0.	c #896D47",
"a.	c #434730",
"b.	c #C4CA3E",
"c.	c #BFBB42",
"d.	c #CBA552",
"e.	c #B88A57",
"f.	c #AE7C58",
"g.	c #AD7B58",
"h.	c #A77756",
"i.	c #2C2631",
"j.	c #987A44",
"k.	c #C9BB4E",
"l.	c #7E5A47",
"m.	c #3F3932",
"n.	c #333330",
"o.	c #838735",
"p.	c #D5BC50",
"q.	c #B68757",
"r.	c #A97857",
"s.	c #63483E",
"t.	c #D6BD50",
"u.	c #E8EF44",
"v.	c #E7ED45",
"w.	c #B28957",
"x.	c #CCBF4F",
"y.	c #CBC04D",
"z.	c #BCB945",
"A.	c #CDD43F",
"B.	c #BE9256",
"C.	c #996D51",
"D.	c #5D443C",
"E.	c #957843",
"F.	c #CEA754",
"G.	c #E2DF49",
"H.	c #C3AD52",
"I.	c #E8EE44",
"J.	c #AC7A58",
"K.	c #966A4F",
"L.	c #262330",
"M.	c #C9A152",
"N.	c #CEA554",
"O.	c #DCCE4D",
"P.	c #E8ED45",
"Q.	c #CCA354",
"R.	c #332D30",
"S.	c #B38F4C",
"T.	c #CFA754",
"U.	c #CFA953",
"V.	c #B78857",
"W.	c #94694F",
"X.	c #2B2631",
"Y.	c #61493C",
"Z.	c #AA844D",
"`.	c #C49A54",
" +	c #CDA354",
".+	c #CDA454",
"++	c #AE7D58",
"@+	c #A87756",
"#+	c #2B2530",
"$+	c #23212F",
"%+	c #62483D",
"&+	c #976D4F",
"*+	c #B38556",
"=+	c #BB8F55",
"-+	c #322932",
";+	c #171C2E",
"                                                                                                                                ",
"                                                                                                                                ",
"                                                                                                                                ",
"                                                                                                                                ",
"                                                                                                                                ",
"                                                                                                                                ",
"                                                                                                                                ",
"                                                                                                                                ",
"                                                                                                                                ",
"                                                                                                                                ",
"                                                                                                                                ",
"                                                                                                                                ",
"                                                                                                                                ",
"                                                                                                                                ",
"                                                                                                                                ",
"                                                                                                                                ",
"                                                                                                                                ",
"                                                                                                                                ",
"                                                                                                                                ",
"                                                                                                                                ",
"                                                                                                                                ",
"                                                                                                                                ",
"                                                                                                                                ",
"                                                                        . + @                                                   ",
"                                                                        # $ % & * =                                             ",
"                                                                        + - ; > , '                                             ",
"                                                                        ) ! ~ { ] ^                                             ",
"                                                                        / ( _ : < @                                             ",
"                                                                      @ [ } | 1 2 @                                             ",
"                                                                @ + 3 4 5 6 7 8 9 @                                             ",
"                                                                0 a b c d e f g h                                               ",
"                                                              i j k l m n o p q r s                                             ",
"                                                            @ t u v w x y z A B C ^                                             ",
"                                                        @ . D E F t G H I J K L M N                                             ",
"                                                      @ 0 a O P Q R S T U V k L M N                                             ",
"                                                      0 W X Y Z ^ `  ...+.@.k #.$.N                                             ",
"                                                    + %.&.*.=.-.;.>.,.'.).k !.~.{.N                                             ",
"                                                    ].^./.l (._.:.<.[.}.|.1.2.3.4.5.                                            ",
"                                                  @ 6.7.8.K 9.0.a.b.c.Q d.e.f.g.h.i.                                            ",
"                                                  @ j.#.k k k k.l.m.n.o...p.q.r.s.h                                             ",
"                                                  @ j.t.u.k v.w.x.y.z.A.k #.B.C.D.@                                             ",
"                                                    E.F.G.k v.H.I.k k k k #.B.J.K.L.                                            ",
"                                                    Q M.t.!.k I.k k k k ).p.q.J.h.i.                                            ",
"                                                    h j.N.~.O.G.P.P.P.G.t.Q.f.J.l.h                                             ",
"                                                    @ R.S.N.N.T.U.U.U.T.Q.V.J.W.X.                                              ",
"                                                      @ Y.Z.`. +.+N.Q.B.++@+l.#+@                                               ",
"                                                        @ $+%+&+*+=+4.h.l.-+;+@                                                 ",
"                                                            @ $+i.i.i.i.h @                                                     ",
"                                                                                                                                ",
"                                                                                                                                ",
"                                                                                                                                ",
"                                                                                                                                ",
"                                                                                                                                ",
"                                                                                                                                ",
"                                                                                                                                ",
"                                                                                                                                ",
"                                                                                                                                ",
"                                                                                                                                ",
"                                                                                                                                ",
"                                                                                                                                ",
"                                                                                                                                ",
"                                                                                                                                ",
"                                                                                                                                ",
"                                                                                                                                "};
