/* XPM */
static char * C7_xpm[] = {
"64 64 197 2",
"  	c None",
". 	c #161C2E",
"+ 	c #2C312F",
"@ 	c #7E8334",
"# 	c #393D2F",
"$ 	c #191F2E",
"% 	c #3B3E2F",
"& 	c #E2E843",
"* 	c #ACB13A",
"= 	c #414530",
"- 	c #D6C94B",
"; 	c #D7C04F",
"> 	c #E7EC45",
", 	c #BAA947",
"' 	c #2D2930",
") 	c #8A8B8E",
"! 	c #B9BABB",
"~ 	c #806F51",
"{ 	c #C2BB44",
"] 	c #D6BE50",
"^ 	c #C8A152",
"/ 	c #705A3A",
"( 	c #3B3F2F",
"_ 	c #2C302F",
": 	c #8F9092",
"< 	c #FAFAFA",
"[ 	c #DCDCDC",
"} 	c #4C4C3F",
"| 	c #937643",
"1 	c #3C3431",
"2 	c #2C2930",
"3 	c #191E2E",
"4 	c #838735",
"5 	c #CCD253",
"6 	c #F0F3BD",
"7 	c #CDD25B",
"8 	c #838838",
"9 	c #929293",
"0 	c #D8DABC",
"a 	c #C9CF4A",
"b 	c #E5EC43",
"c 	c #F4F7BD",
"d 	c #FFFFFF",
"e 	c #FDFEF6",
"f 	c #E7ED57",
"g 	c #BAAA47",
"h 	c #414130",
"i 	c #A6AB39",
"j 	c #CDD43F",
"k 	c #E9F044",
"l 	c #F4F8C0",
"m 	c #FCFBFB",
"n 	c #DED0C9",
"o 	c #FDFDF8",
"p 	c #EAF158",
"q 	c #DBCF4C",
"r 	c #77613C",
"s 	c #27262F",
"t 	c #171D2E",
"u 	c #383531",
"v 	c #CACE40",
"w 	c #CBD13F",
"x 	c #B6B890",
"y 	c #C4AA9D",
"z 	c #C5A99A",
"A 	c #FCFCF4",
"B 	c #EAF157",
"C 	c #CDA753",
"D 	c #957843",
"E 	c #838835",
"F 	c #A49A40",
"G 	c #B38755",
"H 	c #B3934B",
"I 	c #363630",
"J 	c #735D3B",
"K 	c #75623B",
"L 	c #876847",
"M 	c #B1865F",
"N 	c #E7EC58",
"O 	c #E9F045",
"P 	c #E8ED45",
"Q 	c #CFA953",
"R 	c #9A7C45",
"S 	c #181D2E",
"T 	c #888C43",
"U 	c #EEF1BD",
"V 	c #F2F5BD",
"W 	c #E3E152",
"X 	c #D5BB50",
"Y 	c #987A44",
"Z 	c #26252F",
"` 	c #AF8C4B",
" .	c #D9CB4C",
"..	c #E5EA45",
"+.	c #CFC34E",
"@.	c #DDDC49",
"#.	c #E2DF49",
"$.	c #CFA754",
"%.	c #332E30",
"&.	c #EBF098",
"*.	c #FFFFFD",
"=.	c #FEFEFB",
"-.	c #E9EF58",
";.	c #E2DE49",
">.	c #A69D40",
",.	c #322D30",
"'.	c #977D43",
").	c #CAD03F",
"!.	c #E8EE45",
"~.	c #E8EF44",
"{.	c #D6BD50",
"].	c #CDA454",
"^.	c #C29854",
"/.	c #302A31",
"(.	c #AEB33B",
"_.	c #FEFEF8",
":.	c #CFC458",
"<.	c #C0A853",
"[.	c #E1E644",
"}.	c #818535",
"|.	c #74613B",
"1.	c #3F3C31",
"2.	c #CCA852",
"3.	c #DACC4D",
"4.	c #CDA554",
"5.	c #B78857",
"6.	c #AA7957",
"7.	c #2C2631",
"8.	c #D0BA4E",
"9.	c #E9EF4F",
"0.	c #DBD84A",
"a.	c #AF8257",
"b.	c #876747",
"c.	c #3E3F30",
"d.	c #DEE443",
"e.	c #B8A746",
"f.	c #CBA552",
"g.	c #B88A57",
"h.	c #AE7C58",
"i.	c #AC7A58",
"j.	c #94694F",
"k.	c #23222F",
"l.	c #342E30",
"m.	c #CBA652",
"n.	c #CBBD50",
"o.	c #966B4F",
"p.	c #856647",
"q.	c #333330",
"r.	c #D5BC50",
"s.	c #B68757",
"t.	c #2B2530",
"u.	c #CBA453",
"v.	c #E7ED45",
"w.	c #B18657",
"x.	c #BFA553",
"y.	c #CDC14F",
"z.	c #CCC04E",
"A.	c #ADB23B",
"B.	c #DCCF4C",
"C.	c #BE9256",
"D.	c #AB7957",
"E.	c #815C48",
"F.	c #B3904C",
"G.	c #E8EE44",
"H.	c #D0C54E",
"I.	c #DCCE4D",
"J.	c #7C5946",
"K.	c #745D3B",
"L.	c #CCA353",
"M.	c #CFA854",
"N.	c #60463D",
"O.	c #28262F",
"P.	c #B18E4B",
"Q.	c #CEA554",
"R.	c #D0AB53",
"S.	c #C59A55",
"T.	c #AD7B58",
"U.	c #23212F",
"V.	c #332D30",
"W.	c #A9844C",
"X.	c #CBA254",
"Y.	c #CCA354",
"Z.	c #AD7C58",
"`.	c #A77756",
" +	c #7E5A47",
".+	c #634A3D",
"++	c #8D6D45",
"@+	c #AB854D",
"#+	c #BC9155",
"$+	c #CAA153",
"%+	c #C39954",
"&+	c #BB8F55",
"*+	c #986E4F",
"=+	c #7F5B47",
"-+	c #322932",
";+	c #171C2E",
">+	c #2D2631",
"                                                                                                                                ",
"                                                                                                                                ",
"                                                                                                                                ",
"                                                                                                                                ",
"                                                                                                                                ",
"                                                                                                                                ",
"                                                                                                                                ",
"                                                                                                                                ",
"                                                                                                                                ",
"                                                                                                                                ",
"                                                                                                                                ",
"                                                                                                                                ",
"                                                                                                                                ",
"                                                                                                                                ",
"                                                                                                                                ",
"                                                                                                                                ",
"                                                                                                                                ",
"                                                                                                                                ",
"                                                                                                                                ",
"                                                                                                                                ",
"                                                                                                                                ",
"                                                                                                                                ",
"                                                                                                                                ",
"                                                                                                                                ",
"                                                                                                                                ",
"                                                                                .                                               ",
"                                                                              + @ # $                                           ",
"                                                                              % & & * =                                         ",
"                                                                            . # - ; > , '                                       ",
"                                                                          . ) ! ~ { ] ^ /                                       ",
"                                                                  . + ( % _ : < [ } | 1 2                                       ",
"                                                              . 3 4 5 6 6 7 8 9 0 a _ .                                         ",
"                                                              . 4 b c d d e f g h i _                                           ",
"                                                            . @ j k l m n o p q r s .                                           ",
"                                                        . t u v w * x y z A B > C D .                                           ",
"                                                    $ # E F G H I J K L M N O P Q R S                                           ",
"                                                  $ T U V W X Y Z `  ...+.@.k #.$.^ %.                                          ",
"                                                . 4 &.*.=.-.;.>._ ,.'.).!.k ~.{.].^./.                                          ",
"                                                S (.c _.l :.<.[.@ }.|.1.2.3.3.4.5.6.7.                                          ",
"                                                %.8.9.B O 0.a.b.c.d.e.1 f.g.h.h.i.j.k.                                          ",
"                                                l.m.P k k k n.6.o.p.q.4 ..r.s.i.j.t..                                           ",
"                                                l.u.;.k k v.w.x.y.z.A.j k B.C.D.E.t..                                           ",
"                                                2 F.Q ;.k G.H.v.k k k k k I.C.i.i.J..                                           ",
"                                                  K.L.Q I.#.!.k k k k ~.;.M.s.i.6.N..                                           ",
"                                                  O.P.Q.Q.$.R.I.B.B.B.{.$.S.T.i.j.U..                                           ",
"                                                  . V.W.X.].Q.Q.Q.Q.Q.Y.C.Z.`. +t..                                             ",
"                                                    . k..+++@+#+$+%+&+*+=+J.-+;+. .                                             ",
"                                                        . . U.>+l./.7.U.. . .                                                   ",
"                                                                                                                                ",
"                                                                                                                                ",
"                                                                                                                                ",
"                                                                                                                                ",
"                                                                                                                                ",
"                                                                                                                                ",
"                                                                                                                                ",
"                                                                                                                                ",
"                                                                                                                                ",
"                                                                                                                                ",
"                                                                                                                                ",
"                                                                                                                                ",
"                                                                                                                                ",
"                                                                                                                                ",
"                                                                                                                                ",
"                                                                                                                                "};
