/* XPM */
static char * C_xpm[] = {
"32 64 396 2",
"  	c None",
". 	c #193435",
"+ 	c #41673B",
"@ 	c #4C9C60",
"# 	c #205846",
"$ 	c #161C2E",
"% 	c #2E6549",
"& 	c #5D9A53",
"* 	c #348B62",
"= 	c #254B3F",
"- 	c #43693B",
"; 	c #4D9C60",
"> 	c #235744",
", 	c #182430",
"' 	c #2A5343",
") 	c #31654C",
"! 	c #2E5843",
"~ 	c #69A149",
"{ 	c #6BB058",
"] 	c #286E51",
"^ 	c #2E2B31",
"/ 	c #373133",
"( 	c #363133",
"_ 	c #363334",
": 	c #1B2C32",
"< 	c #37835B",
"[ 	c #296F51",
"} 	c #182B32",
"| 	c #191D2E",
"1 	c #796447",
"2 	c #BC9C62",
"3 	c #C49C62",
"4 	c #CEA769",
"5 	c #D5B06D",
"6 	c #D3AE6C",
"7 	c #A18657",
"8 	c #363534",
"9 	c #694F3D",
"0 	c #CDA768",
"a 	c #C1955E",
"b 	c #C89F64",
"c 	c #D0A869",
"d 	c #C9A064",
"e 	c #D0A969",
"f 	c #94764F",
"g 	c #D7B26E",
"h 	c #B88958",
"i 	c #D8B26F",
"j 	c #D1AA6A",
"k 	c #C79E63",
"l 	c #C99F64",
"m 	c #D5B16E",
"n 	c #373635",
"o 	c #497C4A",
"p 	c #2C7050",
"q 	c #3C3434",
"r 	c #CCA668",
"s 	c #C2965F",
"t 	c #CAA165",
"u 	c #D8B36F",
"v 	c #B3915C",
"w 	c #252F33",
"x 	c #4D9D60",
"y 	c #6AB058",
"z 	c #181D2E",
"A 	c #6A523E",
"B 	c #B6935E",
"C 	c #D7B16E",
"D 	c #A38758",
"E 	c #353033",
"F 	c #161D2E",
"G 	c #245A45",
"H 	c #4B9B60",
"I 	c #1F5545",
"J 	c #1E1F2F",
"K 	c #624A43",
"L 	c #9D7353",
"M 	c #B68657",
"N 	c #BF935D",
"O 	c #B58657",
"P 	c #846151",
"Q 	c #282531",
"R 	c #1E202F",
"S 	c #74564B",
"T 	c #926B53",
"U 	c #A37955",
"V 	c #CFA768",
"W 	c #BE925D",
"X 	c #B38356",
"Y 	c #946D53",
"Z 	c #614943",
"` 	c #1B2F3A",
" .	c #3A7E79",
"..	c #2E6261",
"+.	c #161D2F",
"@.	c #866353",
"#.	c #A07655",
"$.	c #CEA768",
"%.	c #B68556",
"&.	c #A17654",
"*.	c #45958E",
"=.	c #48A09D",
"-.	c #3D8E92",
";.	c #192C3A",
">.	c #48383A",
",.	c #785845",
"'.	c #B08154",
").	c #B18156",
"!.	c #9C7457",
"~.	c #74594F",
"{.	c #494041",
"].	c #1B303A",
"^.	c #162335",
"/.	c #2F737D",
"(.	c #4EAAA2",
"_.	c #3B8D93",
":.	c #1D4E63",
"<.	c #192734",
"[.	c #192A37",
"}.	c #2C5D5F",
"|.	c #3C807B",
"1.	c #46827C",
"2.	c #478887",
"3.	c #438C91",
"4.	c #266881",
"5.	c #3B8C91",
"6.	c #4EAAA1",
"7.	c #4FAAA1",
"8.	c #469D9A",
"9.	c #3C8D92",
"0.	c #4CA59E",
"a.	c #397C79",
"b.	c #2F6C71",
"c.	c #479E9C",
"d.	c #33808D",
"e.	c #1F6782",
"f.	c #1B4D63",
"g.	c #2C5C5D",
"h.	c #3D8E91",
"i.	c #327E8A",
"j.	c #3F9295",
"k.	c #4FACA3",
"l.	c #50ADA4",
"m.	c #3F9296",
"n.	c #3D9094",
"o.	c #4FABA3",
"p.	c #3E9195",
"q.	c #2E6363",
"r.	c #161E2F",
"s.	c #2F6564",
"t.	c #225E7A",
"u.	c #225F7A",
"v.	c #1C4C63",
"w.	c #43938F",
"x.	c #4DA9A2",
"y.	c #3D8F94",
"z.	c #3C898A",
"A.	c #3B817E",
"B.	c #182634",
"C.	c #306665",
"D.	c #469790",
"E.	c #317781",
"F.	c #1F6781",
"G.	c #245874",
"H.	c #225E79",
"I.	c #245671",
"J.	c #1B4E65",
"K.	c #216781",
"L.	c #236B84",
"M.	c #226982",
"N.	c #236A82",
"O.	c #216882",
"P.	c #1F6681",
"Q.	c #1F6580",
"R.	c #1D5A73",
"S.	c #1B4B62",
"T.	c #162032",
"U.	c #4EA8A0",
"V.	c #1B3541",
"W.	c #1F647F",
"X.	c #206681",
"Y.	c #245773",
"Z.	c #255671",
"`.	c #205069",
" +	c #242A39",
".+	c #2D2D38",
"++	c #22354E",
"@+	c #225D78",
"#+	c #206580",
"$+	c #245772",
"%+	c #20536D",
"&+	c #1D5971",
"*+	c #397B77",
"=+	c #1B313C",
"-+	c #1C576F",
";+	c #274E6B",
">+	c #225F7B",
",+	c #245570",
"'+	c #242735",
")+	c #99704C",
"!+	c #AF7F53",
"~+	c #62493B",
"{+	c #253E59",
"]+	c #1E5A73",
"^+	c #1D5972",
"/+	c #194155",
"(+	c #1F465E",
"_+	c #20526B",
":+	c #193A4E",
"<+	c #1C5067",
"[+	c #1F2636",
"}+	c #805C4B",
"|+	c #936A4F",
"1+	c #523C3D",
"2+	c #1E5B74",
"3+	c #215F7A",
"4+	c #1E637E",
"5+	c #172638",
"6+	c #193C50",
"7+	c #1D2B41",
"8+	c #3B2D37",
"9+	c #4B373C",
"0+	c #202536",
"a+	c #215C77",
"b+	c #193D52",
"c+	c #1F657F",
"d+	c #264E6A",
"e+	c #255672",
"f+	c #293D5C",
"g+	c #22314B",
"h+	c #293D5B",
"i+	c #1B4F66",
"j+	c #162334",
"k+	c #17283B",
"l+	c #193E52",
"m+	c #1B4D64",
"n+	c #1B4B61",
"o+	c #21324B",
"p+	c #21304A",
"q+	c #263753",
"r+	c #293F5D",
"s+	c #1F637E",
"t+	c #222130",
"u+	c #4D383D",
"v+	c #4D383E",
"w+	c #3B2F39",
"x+	c #1F2536",
"y+	c #172335",
"z+	c #664847",
"A+	c #694A48",
"B+	c #7E5C50",
"C+	c #78574E",
"D+	c #70504B",
"E+	c #6E4F4A",
"F+	c #654746",
"G+	c #4E393D",
"H+	c #846252",
"I+	c #73534C",
"J+	c #936C54",
"K+	c #7F5D50",
"L+	c #79584E",
"M+	c #634A44",
"N+	c #171C2E",
"O+	c #594240",
"P+	c #946D54",
"Q+	c #946C53",
"R+	c #9F7454",
"S+	c #A97B54",
"T+	c #886453",
"U+	c #856253",
"V+	c #7C6848",
"W+	c #7D6949",
"X+	c #624943",
"Y+	c #B28155",
"Z+	c #B08055",
"`+	c #B48355",
" @	c #9E7354",
".@	c #3E2F37",
"+@	c #3B3334",
"@@	c #CBA567",
"#@	c #9C7253",
"$@	c #A07554",
"%@	c #986F54",
"&@	c #A87A54",
"*@	c #936C53",
"=@	c #644945",
"-@	c #302931",
";@	c #836145",
">@	c #CDA667",
",@	c #C29A61",
"'@	c #272431",
")@	c #9B7253",
"!@	c #976F54",
"~@	c #966E54",
"{@	c #896553",
"]@	c #846152",
"^@	c #5B443E",
"/@	c #AC7D53",
"(@	c #6C5145",
"_@	c #876447",
":@	c #664D3D",
"<@	c #191E2E",
"[@	c #77584B",
"}@	c #B18155",
"|@	c #B28255",
"1@	c #A87B54",
"2@	c #876453",
"3@	c #956D54",
"4@	c #B18154",
"5@	c #49383A",
"6@	c #292531",
"7@	c #906A51",
"8@	c #9E7454",
"9@	c #886553",
"0@	c #85624C",
"a@	c #171D2E",
"b@	c #523E3D",
"c@	c #75574B",
"d@	c #242330",
"e@	c #926B52",
"f@	c #B38255",
"g@	c #242230",
"h@	c #202130",
"i@	c #5F4842",
"j@	c #876352",
"k@	c #73564A",
"l@	c #2D2832",
"m@	c #4C3B3B",
"n@	c #5D4641",
"o@	c #684D3D",
"p@	c #9E7453",
"q@	c #90694C",
"r@	c #463634",
"s@	c #9F744E",
"t@	c #684D3C",
"u@	c #49393A",
"v@	c #815F51",
"w@	c #57423F",
"x@	c #302933",
"y@	c #715449",
"z@	c #694E3E",
"A@	c #876246",
"B@	c #AF8054",
"C@	c #AE7E53",
"D@	c #433534",
"E@	c #9B714C",
"F@	c #846145",
"G@	c #674D44",
"H@	c #1F202F",
"I@	c #2F2933",
"J@	c #7F5E50",
"K@	c #533F3C",
"L@	c #AE7F53",
"M@	c #77594B",
"N@	c #6F523F",
"O@	c #AF8053",
"P@	c #876245",
"Q@	c #4B3A3B",
"R@	c #9C7252",
"S@	c #B28254",
"T@	c #664C3C",
"U@	c #2D2732",
"V@	c #AD7E53",
"W@	c #76584B",
"X@	c #6B4F3E",
"Y@	c #916A4C",
"Z@	c #3C3033",
"`@	c #523E3C",
" #	c #382E32",
".#	c #785844",
"+#	c #634A43",
"@#	c #382E33",
"##	c #9D724D",
"$#	c #292530",
"%#	c #74564A",
"&#	c #866352",
"*#	c #A77A54",
"=#	c #A77A53",
"-#	c #2F2831",
";#	c #20202F",
">#	c #2A2531",
",#	c #745644",
"'#	c #503D3C",
")#	c #A77953",
"!#	c #825F44",
"~#	c #634A3B",
"{#	c #312931",
"]#	c #836044",
"^#	c #8F694C",
"/#	c #856252",
"(#	c #262431",
"_#	c #664C44",
":#	c #846045",
"<#	c #805E43",
"[#	c #90694D",
"}#	c #5A4440",
"                                                                ",
"                                                                ",
"                                                                ",
"                                                                ",
"                                                                ",
"                                                                ",
"                                                                ",
"                                  .                             ",
"                                + @ #     .                     ",
"                              $ % & * = - ; >                   ",
"                                , ' ) ! ~ { ] $                 ",
"                            ^ / ( ( _ : < [ }                   ",
"                        | 1 2 3 4 5 6 7 8 $                     ",
"                        9 0 a b c d a e 2 ^ ,                   ",
"                        f g h i j j k l m n o p }               ",
"                        q r e s t s d u v w x y ] $             ",
"                        z A B C g g g D E F G H I               ",
"                        J K L M N N O P Q $   .                 ",
"              $ $       R S T U V W X Y Z $                     ",
"            `  ...+.    $ K @.#.$.%.&.T K $                     ",
"          ` *.=.-.;.$   $ >.K ,.'.).!.~.{.` ].].].` +.          ",
"        ^./.=.(._.:.<.].[.^.}.|.1.2.3.4.5.6.7.8.9.0.a.<.        ",
"      +.b.c.(.d.e.f.g.h.i.i.j.k.l.=.m.n.m.k.l.o.p.m.j.q.+.      ",
"    r.s.7.o.d.t.u.v.<.w.x.(.o.o.o.o.o.c.y.y.y.y.y.z.A.a.B.$     ",
"    C.7.D.E.F.G.H.I.J.K.L.L.L.L.M.M.N.O.e.e.e.e.e.P.Q.R.S.T.    ",
"  ` U.*.V.W.e.P.X.e.e.P.G.Y.Z.`. +.+++@+e.e.#+$+%+Q.P.Q.&+T.    ",
"  <.*+=+-+P.u.;+Y.u.>+e.X.#+,+'+)+!+~+J.P.Y.{+]+^+/+(+_+:+$     ",
"  $ $ :+<+$+u.X.e.P.P.e.e.e.Q.[+}+|+1+J.e.X.2+3+e.Q.Q.4+5+$     ",
"    $ 6+Q.e.e.e.P.X.e.e.e.e.H.7+8+9+0+a+P.G.H.#+Q.W.f.5++.      ",
"      $ b+W.Q.c+d+e+G.P.e.e.e+f+g+g+h+e+e.#+Y.Y.%+i+S.j+        ",
"          k+6+l+2+Q.v.m+f.f.n+o+p+q+r+s+Q.Q.R.f.R.Q.&+T.        ",
"            :+R.e.J.$   $ t+9+u+u+v+w+x+[+y+^.$ T.^.T.$         ",
"            T.&+e.f.$   8+z+A+A+B+C+D+E+F+J                     ",
"              ^.&+S.$ $ G+B+H+I+T J+K+L+M+N+                    ",
"                T.T.  $ O+@.P+Q+R+S+T+U+O+z V+W+                ",
"                      $ X+P+Y+Z+&.`+ @B+.@+@@@@@(               ",
"                      $ G+#@$@%@R+&@*@=@-@;@>@,@(               ",
"                        '@)@!@~@Z+{@]@^@/@(@_@:@<@              ",
"                        R [@}@|@1@2@3@4@S+P 5@$                 ",
"                        $ 6@7@8@9@J+|@|@0@Q N+                  ",
"                        $ a@b@*@8@{@8@P+c@J $                   ",
"                        d@K e@|@f@$@8@{@]@g@J h@                ",
"                      $ i@2@S+4@`+`+`+Z+j@d@Z k@l@              ",
"                  m@n@R o@p@q@r@4@`+s@e@L t@u@S v@X+w@          ",
"                x@y@z@A@B@C@D@E@`+`+F@G@}@4@t@H@u@I@            ",
"              X+J@K@L@R+M@N@O@`+4@f@P@Q@R@S@4@T@N+$             ",
"              U@6@-@V@W@X@4@f@Y@Z@#@#@`@ #.#f@R@g@$             ",
"                  | +#@#L@`+##$#J %#&#*#C@D@!+=#-#              ",
"                    ;#>#e@R+,#$ $ J '#)#`+!#~#                  ",
"                  {#]#^#/#M+(#    $ N+_#S+:#$                   ",
"                  <#s@[#}#a@          t+                        ",
"                                                                ",
"                                                                ",
"                                                                ",
"                                                                ",
"                                                                ",
"                                                                ",
"                                                                ",
"                                                                ",
"                                                                ",
"                                                                ",
"                                                                ",
"                                                                ",
"                                                                "};
