/* XPM */
static char * P2_xpm[] = {
"64 64 341 2",
"  	c None",
". 	c #182334",
"+ 	c #2E606F",
"@ 	c #1B2D39",
"# 	c #1B2D38",
"$ 	c #1F3948",
"% 	c #387788",
"& 	c #49979E",
"* 	c #58B0A9",
"= 	c #52A3A0",
"- 	c #458A86",
"; 	c #1A2B39",
"> 	c #1E3746",
", 	c #3B7488",
"' 	c #428C9B",
") 	c #59B1AB",
"! 	c #58AFAA",
"~ 	c #50A2A4",
"{ 	c #59B2AB",
"] 	c #4F9F9E",
"^ 	c #2D575B",
"/ 	c #171D30",
"( 	c #35566F",
"_ 	c #3E8195",
": 	c #387989",
"< 	c #4B9591",
"[ 	c #50A09A",
"} 	c #57AEA9",
"| 	c #4D9EA2",
"1 	c #499599",
"2 	c #1A2937",
"3 	c #192033",
"4 	c #3E6F87",
"5 	c #3E8496",
"6 	c #364666",
"7 	c #252E47",
"8 	c #182231",
"9 	c #3F7E7B",
"0 	c #418385",
"a 	c #58B0AA",
"b 	c #30626A",
"c 	c #323F5F",
"d 	c #3F7189",
"e 	c #40577A",
"f 	c #3F4D74",
"g 	c #242D46",
"h 	c #192634",
"i 	c #448A8B",
"j 	c #4F9F9D",
"k 	c #407F7D",
"l 	c #3D7E85",
"m 	c #252F48",
"n 	c #323E5E",
"o 	c #323D5D",
"p 	c #181E31",
"q 	c #161C2E",
"r 	c #243D4F",
"s 	c #458794",
"t 	c #396C7B",
"u 	c #36506B",
"v 	c #182435",
"w 	c #376A7F",
"x 	c #34687A",
"y 	c #202D42",
"z 	c #594A46",
"A 	c #5F4F4B",
"B 	c #29344F",
"C 	c #253B4F",
"D 	c #2B4051",
"E 	c #83735E",
"F 	c #383941",
"G 	c #D5B583",
"H 	c #262531",
"I 	c #B0A496",
"J 	c #D9CEC3",
"K 	c #D6D7D9",
"L 	c #D5D4D4",
"M 	c #F0E7DC",
"N 	c #98938D",
"O 	c #212330",
"P 	c #E3D1B8",
"Q 	c #A18B6C",
"R 	c #7D665B",
"S 	c #A89371",
"T 	c #E3D5A3",
"U 	c #F0E2AF",
"V 	c #EBDBAB",
"W 	c #EEE1C6",
"X 	c #F3EACA",
"Y 	c #E2CE9D",
"Z 	c #A58D68",
"` 	c #E4D2BB",
" .	c #F7F6EB",
"..	c #3C3D40",
"+.	c #3D353A",
"@.	c #977B6A",
"#.	c #CEAF80",
"$.	c #E7D49F",
"%.	c #F1E4B6",
"&.	c #F4EBCA",
"*.	c #F6EFD6",
"=.	c #EFECE3",
"-.	c #E7DFCA",
";.	c #E4D19D",
">.	c #625547",
",.	c #BBAA83",
"'.	c #FDFCFA",
").	c #ECE5BF",
"!.	c #3A3B3B",
"~.	c #514444",
"{.	c #A0846E",
"].	c #D4B483",
"^.	c #DBC08E",
"/.	c #ECDCA6",
"(.	c #EFE1AB",
"_.	c #F1E5B9",
":.	c #D1CDC0",
"<.	c #947F60",
"[.	c #ECDEB8",
"}.	c #8F8569",
"|.	c #716353",
"1.	c #EFE7D0",
"2.	c #EDE2D2",
"3.	c #DFCE98",
"4.	c #AF9274",
"5.	c #D9BB89",
"6.	c #D2CEC4",
"7.	c #322E34",
"8.	c #D9BF90",
"9.	c #C4B9A0",
"0.	c #817E66",
"a.	c #EFE8C7",
"b.	c #D6B886",
"c.	c #9E916E",
"d.	c #695B4A",
"e.	c #5E5145",
"f.	c #BB9D78",
"g.	c #D3B482",
"h.	c #D2B382",
"i.	c #F0E5BF",
"j.	c #C3C3C2",
"k.	c #171D2E",
"l.	c #978162",
"m.	c #A79E7D",
"n.	c #292B33",
"o.	c #D2CC99",
"p.	c #DEC893",
"q.	c #C8AA7C",
"r.	c #272933",
"s.	c #AD936D",
"t.	c #877459",
"u.	c #3F363B",
"v.	c #927767",
"w.	c #C9AA7E",
"x.	c #C3A97C",
"y.	c #847B62",
"z.	c #3C3B3B",
"A.	c #33343B",
"B.	c #232836",
"C.	c #202230",
"D.	c #7B745F",
"E.	c #232632",
"F.	c #807D62",
"G.	c #C7C091",
"H.	c #947E5F",
"I.	c #306777",
"J.	c #36616E",
"K.	c #AE9570",
"L.	c #927C5E",
"M.	c #262631",
"N.	c #9E826D",
"O.	c #C3A47B",
"P.	c #D0B182",
"Q.	c #E0C995",
"R.	c #DECF9D",
"S.	c #CAC19E",
"T.	c #C1BFBA",
"U.	c #EADAAF",
"V.	c #7F7860",
"W.	c #D0CA98",
"X.	c #9B8A6B",
"Y.	c #C8AA7B",
"Z.	c #347081",
"`.	c #3E8698",
" +	c #4F7E8C",
".+	c #9E8973",
"++	c #B99D75",
"@+	c #726052",
"#+	c #836D5F",
"$+	c #E1CA96",
"%+	c #EFE2AD",
"&+	c #F5EFDB",
"*+	c #3E3D44",
"=+	c #D2BC98",
"-+	c #F1E7C7",
";+	c #8D8366",
">+	c #1C2F3A",
",+	c #756651",
"'+	c #C5BA8E",
")+	c #A88E6A",
"!+	c #428B9A",
"~+	c #4E929C",
"{+	c #C8AB7E",
"]+	c #998262",
"^+	c #908667",
"/+	c #AFA37B",
"(+	c #BCB185",
"_+	c #837056",
":+	c #D6B785",
"<+	c #EEE0AA",
"[+	c #F1E6C1",
"}+	c #B0ABA5",
"|+	c #E9D8A4",
"1+	c #E1D3A1",
"2+	c #35484E",
"3+	c #4F9F9C",
"4+	c #2C4D58",
"5+	c #BA9E74",
"6+	c #6A5B4C",
"7+	c #C5A87A",
"8+	c #3F8798",
"9+	c #569FA1",
"0+	c #E2D5A0",
"a+	c #D9BD8A",
"b+	c #766651",
"c+	c #B5A279",
"d+	c #BEA277",
"e+	c #EDDFA9",
"f+	c #F2E8C0",
"g+	c #F8F1DD",
"h+	c #E5D39F",
"i+	c #8B7C61",
"j+	c #478E8D",
"k+	c #31636B",
"l+	c #6F675A",
"m+	c #A38B67",
"n+	c #766157",
"o+	c #806C58",
"p+	c #5D797E",
"q+	c #428798",
"r+	c #4C9BA1",
"s+	c #C3C8A1",
"t+	c #E2D09A",
"u+	c #D5B683",
"v+	c #907A5E",
"w+	c #AF956E",
"x+	c #1E253B",
"y+	c #1F273D",
"z+	c #202331",
"A+	c #C2B288",
"B+	c #E0D4A3",
"C+	c #958C6F",
"D+	c #354163",
"E+	c #306069",
"F+	c #418998",
"G+	c #325F6E",
"H+	c #272936",
"I+	c #7A645A",
"J+	c #282B3E",
"K+	c #B19770",
"L+	c #BFAC89",
"M+	c #87A79F",
"N+	c #BCB896",
"O+	c #DBC28E",
"P+	c #A58A6D",
"Q+	c #294156",
"R+	c #3F6A85",
"S+	c #39486B",
"T+	c #2E3856",
"U+	c #191F32",
"V+	c #2B2D36",
"W+	c #354C69",
"X+	c #3F6481",
"Y+	c #2A3047",
"Z+	c #505155",
"`+	c #346274",
" @	c #3B5272",
".@	c #2D3855",
"+@	c #2C5466",
"@@	c #A48C68",
"#@	c #D8BC89",
"$@	c #E6DCA4",
"%@	c #A6B29B",
"&@	c #BEAC89",
"*@	c #D4B583",
"=@	c #AA8F70",
"-@	c #B0966F",
";@	c #293751",
">@	c #3E8194",
",@	c #3E8094",
"'@	c #3F6B86",
")@	c #3C4B70",
"!@	c #39486A",
"~@	c #324964",
"{@	c #5C4C49",
"]@	c #AE9173",
"^@	c #A9906C",
"/@	c #2F3040",
"(@	c #2F3958",
"_@	c #313C5B",
":@	c #71614D",
"<@	c #DFCB96",
"[@	c #9ABBA5",
"}@	c #4F9DA1",
"|@	c #7E9C98",
"1@	c #7B7162",
"2@	c #A98F6B",
"3@	c #294056",
"4@	c #3F7B90",
"5@	c #3E7C91",
"6@	c #3E7B90",
"7@	c #346277",
"8@	c #172031",
"9@	c #4F4242",
"0@	c #A88F6B",
"a@	c #181E32",
"b@	c #B0966E",
"c@	c #A8A38D",
"d@	c #45919C",
"e@	c #325664",
"f@	c #866F5E",
"g@	c #364365",
"h@	c #355D74",
"i@	c #2D4F63",
"j@	c #172032",
"k@	c #242C45",
"l@	c #796753",
"m@	c #544940",
"n@	c #2D2B33",
"o@	c #C9B086",
"p@	c #458798",
"q@	c #3B7E90",
"r@	c #69615E",
"s@	c #3E353B",
"t@	c #29334F",
"u@	c #AD946F",
"v@	c #45808F",
"w@	c #404850",
"x@	c #3B3339",
"y@	c #232734",
"z@	c #253946",
"                                                                                                                                ",
"                                                                                                                                ",
"                                                                                                                                ",
"                                                                                                                                ",
"                                                                                                                                ",
"                                                                                                                                ",
"                                                                                                                                ",
"                                                                                                                                ",
"                                                                                                                                ",
"                                                                                                                                ",
"                                                                                                                                ",
"                                                                                                                                ",
"                                                                                                                                ",
"                                                                                                                                ",
"                                                                                                                                ",
"                                                    . + @ #                                                                     ",
"                                                  $ % & * = - ;                                                                 ",
"                                                > , ' ) ! ~ { ] ^                                                               ",
"                                              / ( _ : < [ } | { 1 2                                                             ",
"                                              3 4 5 6 7 8 9 ) 0 a b                                                             ",
"                                                c d e f g h i j k l                                                             ",
"                                                / m n o p q r s t u                                                             ",
"                                                      q     v w x y                                                             ",
"                                                        z A B C D E F                       G                                   ",
"                                                      H I J K L L M N O                   P Q                                   ",
"                                                    q R S T U V W X Y Z                 `  ...                                  ",
"                                                    +.@.#.$.%.&.*.=.-.;.>.            ,.'.).!.                                  ",
"                                                    ~.{.].^./.(._.:.<.[.}.          |.1.2.3.!.                                  ",
"                                                  q R 4.G G 5.$.*.6.7.8.9.          0.a.b.c.                                    ",
"                                          d.e.    q R f.].g.h.;.i.j.k.l.m.q       n.o.p.q.7.                                    ",
"                                          r.s.t.  q u.v.w.x.y.z.A.B.q C.D.E.      F.G.g.H.                                      ",
"                                          I.J.K.L.M.+.N.O.P.Q.R.S.T.B.<.U.V.    n.W.X.Y.7.                                      ",
"                                          Z.`. +.+++<.@+#+q.G $+%+&+*+=+-+;+>+  ,+'+)+H.                                        ",
"                                          Z.!+~+{+]+^+/+(+_+G :+<+[+}+|+1+2+3+4+5+6+7+7.                                        ",
"                                          Z.8+9+0+a+h.b+c+M._+d+e+f+g+h+i+j+k+l+m+n+o+                                          ",
"                                          p+q+r+s+t+u+v+w+x+y+z+V.A+B+C+D+E+F+G+H+I+J+v                                         ",
"                                          K+L+M+N+O+u+P+w+Q+R+S+T+U+V+W+X+Y+Z+`+ @.@B +@                                        ",
"                                          @@#@$@%@&@*@=@-@;@>@,@'@)@!@d ~@{@]@^@/@(@_@/                                         ",
"                                          :@*@<@[@}@|@1@2@3@4@`.`.5@6@7@8@9@f.*@0@q a@                                          ",
"                                          M.b@G c@d@`.e@f@g g@( h@h@i@j@q k@~.l@m@                                              ",
"                                            n@b@o@p@q@r@s@q q q q q q     t@g                                                   ",
"                                              n@u@v@w@x@  q q   q q                                                             ",
"                                                y@z@A     q q   q q                                                             ",
"                                                  q                                                                             ",
"                                                                                                                                ",
"                                                                                                                                ",
"                                                                                                                                ",
"                                                                                                                                ",
"                                                                                                                                ",
"                                                                                                                                ",
"                                                                                                                                ",
"                                                                                                                                ",
"                                                                                                                                ",
"                                                                                                                                ",
"                                                                                                                                ",
"                                                                                                                                ",
"                                                                                                                                ",
"                                                                                                                                ",
"                                                                                                                                ",
"                                                                                                                                ",
"                                                                                                                                ",
"                                                                                                                                ",
"                                                                                                                                ",
"                                                                                                                                "};
