/* XPM */
static char * P3_xpm[] = {
"64 64 340 2",
"  	c None",
". 	c #172031",
"+ 	c #1F3B49",
"@ 	c #3B7D89",
"# 	c #386F6F",
"$ 	c #336465",
"% 	c #1B2D38",
"& 	c #182032",
"* 	c #356478",
"= 	c #418A99",
"- 	c #4FA1A3",
"; 	c #57AEAA",
"> 	c #50A2A4",
", 	c #54A7A1",
"' 	c #29525E",
") 	c #171D30",
"! 	c #315168",
"~ 	c #3E8194",
"{ 	c #3F8899",
"] 	c #59B2AC",
"^ 	c #5AB3AC",
"/ 	c #54AAA8",
"( 	c #59B1AA",
"_ 	c #366F78",
": 	c #181F32",
"< 	c #3B6E85",
"[ 	c #3E8597",
"} 	c #2F6070",
"| 	c #386E6E",
"1 	c #468B88",
"2 	c #55AAA4",
"3 	c #52A4A0",
"4 	c #1C2E3B",
"5 	c #171E30",
"6 	c #39516F",
"7 	c #3E7B90",
"8 	c #3F4F75",
"9 	c #323E5E",
"0 	c #181E31",
"a 	c #397170",
"b 	c #408284",
"c 	c #54A8A2",
"d 	c #3A777E",
"e 	c #1F273E",
"f 	c #324964",
"g 	c #3C5273",
"h 	c #3F4D73",
"i 	c #242D46",
"j 	c #161D2E",
"k 	c #336972",
"l 	c #50A2A3",
"m 	c #397172",
"n 	c #3A6E7C",
"o 	c #161C2E",
"p 	c #1F2B40",
"q 	c #3B7488",
"r 	c #366478",
"s 	c #192536",
"t 	c #346175",
"u 	c #34677A",
"v 	c #182334",
"w 	c #D5B583",
"x 	c #232430",
"y 	c #937E66",
"z 	c #857368",
"A 	c #444C66",
"B 	c #393E4D",
"C 	c #424551",
"D 	c #C2B7AB",
"E 	c #838385",
"F 	c #D6B888",
"G 	c #CFB692",
"H 	c #4C4041",
"I 	c #8A8786",
"J 	c #E3D9C6",
"K 	c #F7F2E4",
"L 	c #F2EBDF",
"M 	c #EFE7DC",
"N 	c #EBDEC2",
"O 	c #A39576",
"P 	c #544940",
"Q 	c #C7AB80",
"R 	c #F1E8DD",
"S 	c #9D9C95",
"T 	c #1B1F2F",
"U 	c #866E61",
"V 	c #C5A980",
"W 	c #EBDBA6",
"X 	c #F1E4B6",
"Y 	c #F4EACA",
"Z 	c #F9F4E5",
"` 	c #FAF5E7",
" .	c #EBDCB9",
"..	c #C1A77C",
"+.	c #968161",
"@.	c #DCD8CF",
"#.	c #FBF9EE",
"$.	c #949071",
"%.	c #4F4242",
"&.	c #997D6B",
"*.	c #D3B382",
"=.	c #E6D39E",
"-.	c #EFE1AC",
";.	c #EFE2AE",
">.	c #F1E5BA",
",.	c #E0DCD1",
"'.	c #D0C3A8",
").	c #EADAA5",
"!.	c #786953",
"~.	c #D5C1A5",
"{.	c #F8F5E6",
"].	c #E1CEA5",
"^.	c #938F6F",
"/.	c #5E4E4A",
"(.	c #A88B71",
"_.	c #D6B684",
":.	c #E7D39F",
"<.	c #EFE0AA",
"[.	c #F4ECCC",
"}.	c #D2CEC4",
"|.	c #71614E",
"1.	c #E7D6B3",
"2.	c #968D70",
"3.	c #292B33",
"4.	c #DEDCCF",
"5.	c #E3D1A8",
"6.	c #D2BE8C",
"7.	c #676452",
"8.	c #544941",
"9.	c #7E675C",
"0.	c #B69876",
"a.	c #E4D09C",
"b.	c #F4EBCB",
"c.	c #D1CEC3",
"d.	c #272731",
"e.	c #CCB284",
"f.	c #D1C5AA",
"g.	c #807D62",
"h.	c #E9DFA7",
"i.	c #957F60",
"j.	c #816F56",
"k.	c #A38B67",
"l.	c #302D33",
"m.	c #695750",
"n.	c #A98D70",
"o.	c #CAAB7F",
"p.	c #C1A478",
"q.	c #B29870",
"r.	c #C1B187",
"s.	c #CBC2A1",
"t.	c #9D9D9F",
"u.	c #6E5F4D",
"v.	c #7A745D",
"w.	c #D0CA98",
"x.	c #D2BB89",
"y.	c #C8AA7C",
"z.	c #322E34",
"A.	c #182435",
"B.	c #2C5C6B",
"C.	c #86745B",
"D.	c #AE946D",
"E.	c #2F2C33",
"F.	c #4D4142",
"G.	c #D6B987",
"H.	c #B9AD85",
"I.	c #7D775F",
"J.	c #323237",
"K.	c #2C2E38",
"L.	c #50463F",
"M.	c #B5AA8E",
"N.	c #BEB68B",
"O.	c #BEA176",
"P.	c #947E5F",
"Q.	c #192838",
"R.	c #3D8496",
"S.	c #3B7E90",
"T.	c #857E72",
"U.	c #A78C6E",
"V.	c #8A755B",
"W.	c #383337",
"X.	c #8E7563",
"Y.	c #AE9173",
"Z.	c #CFAF80",
"`.	c #D9BB89",
" +	c #E8D7A2",
".+	c #EEE2B6",
"++	c #ECEAE4",
"@+	c #2E313C",
"#+	c #A7906E",
"$+	c #EFE3BD",
"%+	c #938B6D",
"&+	c #262631",
"*+	c #CDC493",
"=+	c #948469",
"-+	c #C7A97B",
";+	c #3F8798",
">+	c #7A9393",
",+	c #BCA076",
"'+	c #8B775B",
")+	c #B5A47A",
"!+	c #C1B78A",
"~+	c #7E7960",
"{+	c #DCC18E",
"]+	c #EFE1AB",
"^+	c #F3ECD2",
"/+	c #454246",
"(+	c #E0CBA2",
"_+	c #EDE0B4",
":+	c #776C57",
"<+	c #3F7D7B",
"[+	c #34686B",
"}+	c #776650",
"|+	c #A99670",
"1+	c #AB916D",
"2+	c #48969E",
"3+	c #93AD9D",
"4+	c #DDC692",
"5+	c #D2B382",
"6+	c #A48C68",
"7+	c #8D8062",
"8+	c #847258",
"9+	c #968060",
"0+	c #D2B281",
"a+	c #EEE0AA",
"b+	c #F0E4B8",
"c+	c #DFDBD5",
"d+	c #ECDCA9",
"e+	c #D1C294",
"f+	c #366060",
"g+	c #37737C",
"h+	c #335F67",
"i+	c #BA9E74",
"j+	c #66564A",
"k+	c #AC9170",
"l+	c #1A2838",
"m+	c #418596",
"n+	c #78B2A8",
"o+	c #E4D7A0",
"p+	c #D8BC89",
"q+	c #8D7E61",
"r+	c #837157",
"s+	c #181D2F",
"t+	c #947F60",
"u+	c #E0D3A1",
"v+	c #F0E4B7",
"w+	c #F3E9C4",
"x+	c #D9C796",
"y+	c #5D565B",
"z+	c #2F5862",
"A+	c #4B999F",
"B+	c #2F5765",
"C+	c #6D5F4D",
"D+	c #735E55",
"E+	c #685650",
"F+	c #343035",
"G+	c #BBA987",
"H+	c #7B9494",
"I+	c #53959D",
"J+	c #DBC693",
"K+	c #DFCB96",
"L+	c #D4B482",
"M+	c #9D8467",
"N+	c #837056",
"O+	c #324863",
"P+	c #2E3A57",
"Q+	c #1F273D",
"R+	c #303036",
"S+	c #8A7C61",
"T+	c #B7AD85",
"U+	c #605D56",
"V+	c #2E3957",
"W+	c #2A4A58",
"X+	c #377687",
"Y+	c #385E77",
"Z+	c #2B3149",
"`+	c #272E46",
" @	c #345A70",
".@	c #182636",
"+@	c #CAD4AA",
"@@	c #BFAC89",
"#@	c #D4B583",
"$@	c #B09374",
"%@	c #355C73",
"&@	c #3E7B91",
"*@	c #3F5F7E",
"=@	c #39476A",
"-@	c #252E47",
";@	c #3C4B70",
">@	c #3F5C7C",
",@	c #262B3F",
"'@	c #8E7465",
")@	c #927C62",
"!@	c #30374B",
"~@	c #384568",
"{@	c #2E3856",
"]@	c #1F283E",
"^@	c #181D2E",
"/@	c #B2976F",
"(@	c #E5DAA3",
"_@	c #5DA8A5",
":@	c #7E9D98",
"<@	c #978064",
"[@	c #355D74",
"}@	c #3E8698",
"|@	c #3F587A",
"1@	c #3F5779",
"2@	c #3F6B85",
"3@	c #2A4258",
"4@	c #222331",
"5@	c #AC8F72",
"6@	c #B69A72",
"7@	c #242532",
"8@	c #73624E",
"9@	c #D3B482",
"0@	c #D4B584",
"a@	c #6B9D9D",
"b@	c #46929D",
"c@	c #61534F",
"d@	c #766452",
"e@	c #354264",
"f@	c #3F5F7D",
"g@	c #3E768C",
"h@	c #3E768D",
"i@	c #3B7388",
"j@	c #294B5D",
"k@	c #60504B",
"l@	c #A38969",
"m@	c #222330",
"n@	c #877358",
"o@	c #9A9D8F",
"p@	c #3C7E8F",
"q@	c #725F57",
"r@	c #3B343A",
"s@	c #313C5B",
"t@	c #B3A68A",
"u@	c #3F474F",
"v@	c #3F363B",
"w@	c #585F5F",
"x@	c #4F5055",
"y@	c #514443",
"                                                                                                                                ",
"                                                                                                                                ",
"                                                                                                                                ",
"                                                                                                                                ",
"                                                                                                                                ",
"                                                                                                                                ",
"                                                                                                                                ",
"                                                                                                                                ",
"                                                                                                                                ",
"                                                                                                                                ",
"                                                                                                                                ",
"                                                                                                                                ",
"                                                                                                                                ",
"                                                                                                                                ",
"                                                                                                                                ",
"                                                                                                                                ",
"                                                  . + @ # $ %                                                                   ",
"                                                & * = - ; > , '                                                                 ",
"                                              ) ! ~ { ] ^ / ; ( _                                                               ",
"                                              : < [ } | 1 ( - 2 3 4                                                             ",
"                                              5 6 7 8 9 0 a ( b c d                                                             ",
"                                                e f g h i j k l m n                                                             ",
"                                                    0 : o   p q r f                                                             ",
"                                                            s t u v                         w                                   ",
"                                                      x y z A B C D E                     F G                                   ",
"                                                    o H I J K L M N O P                 Q R S                                   ",
"                                                    T U V W X Y Z `  ...              +.@.#.$.                                  ",
"                                                    %.&.*.=.-.;.>.,.'.).!.            ~.{.].^.                                  ",
"                                                  o /.(.w _.:.<.[.}.|.1.2.          3.4.5.6.7.                                  ",
"                                        o 8.      o 9.0.w w w a.b.c.d.e.f.          g.h._.i.                                    ",
"                                        o j.k.l.  o m.n.o.p.q.r.s.t.o u.v.o       3.w.x.y.z.                                    ",
"                                        A.B.C.D.E.o F.&.*.G.H.I.J.K.o L.M.J.      g.N.O.P.                                      ",
"                                        Q.R.S.T.U.V.W.X.Y.Z.`. +.+++@+#+$+%+    &+*+=+-+z.                                      ",
"                                        Q.R.;+>+,+'+)+!+~+O.w {+]+^+/+(+_+:+<+[+}+|+1+P.                                        ",
"                                        Q.R.2+3+4+5+6+7+8+9+0+_.a+b+c+d+e+f+g+h+i+j+k+z.                                        ",
"                                        l+m+;+n+o+p+5+q+r+s+z.t+u+v+w+x+y+z+A+B+C+D+E+o                                         ",
"                                        F+G+H+I+J+K+L+M+N+O+P+Q+R+S+T+U+h V+W+X+Y+Z+`+ @.@                                      ",
"                                        F+0+K++@@@#@L+$@N+%@&@*@=@-@e ;@>@,@'@)@!@~@{@]@                                        ",
"                                        ^@/@p+(@_@:@G+<@N+[@[ }@&@|@1@2@3@4@5@w 6@7@i 0                                         ",
"                                          8@9@0@a@b@m+c@d@e@f@g@h@g@i@j@o ) k@l@k.m@                                            ",
"                                            n@9@o@}@p@q@r@5 : : : : 5 o   i s@o o                                               ",
"                                              n@t@S.u@v@  o o   o o       o :                                                   ",
"                                                w@x@y@    o o   o o                                                             ",
"                                                  T                                                                             ",
"                                                                                                                                ",
"                                                                                                                                ",
"                                                                                                                                ",
"                                                                                                                                ",
"                                                                                                                                ",
"                                                                                                                                ",
"                                                                                                                                ",
"                                                                                                                                ",
"                                                                                                                                ",
"                                                                                                                                ",
"                                                                                                                                ",
"                                                                                                                                ",
"                                                                                                                                ",
"                                                                                                                                ",
"                                                                                                                                ",
"                                                                                                                                ",
"                                                                                                                                ",
"                                                                                                                                ",
"                                                                                                                                ",
"                                                                                                                                "};
