/* XPM */
static char * P4_xpm[] = {
"64 64 353 2",
"  	c None",
". 	c #214150",
"+ 	c #2A5664",
"@ 	c #1D303B",
"# 	c #172233",
"$ 	c #2E616F",
"% 	c #53A8A6",
"& 	c #56ACA8",
"* 	c #4A9695",
"= 	c #3C7879",
"- 	c #234450",
"; 	c #171E30",
"> 	c #356478",
", 	c #49979F",
"' 	c #58AFAA",
") 	c #55ABA8",
"! 	c #52A6A6",
"~ 	c #57AEAA",
"{ 	c #2D5D6A",
"] 	c #243048",
"^ 	c #3E7B90",
"/ 	c #418B99",
"( 	c #4B9692",
"_ 	c #50A09A",
": 	c #59B1AB",
"< 	c #4D9DA2",
"[ 	c #50A09B",
"} 	c #54A8A2",
"| 	c #274E5B",
"1 	c #324964",
"2 	c #3E7F93",
"3 	c #2F4961",
"4 	c #29334E",
"5 	c #192333",
"6 	c #397170",
"7 	c #48918F",
"8 	c #4B9591",
"9 	c #3E7E82",
"0 	c #2D455D",
"a 	c #40587B",
"b 	c #404E75",
"c 	c #354163",
"d 	c #171D30",
"e 	c #2A4F5F",
"f 	c #4B969C",
"g 	c #387076",
"h 	c #365F74",
"i 	c #181F32",
"j 	c #324763",
"k 	c #3C5A78",
"l 	c #3F4E74",
"m 	c #192536",
"n 	c #387083",
"o 	c #356378",
"p 	c #324A64",
"q 	c #191F33",
"r 	c #1F2231",
"s 	c #42383C",
"t 	c #1F2A40",
"u 	c #305067",
"v 	c #346276",
"w 	c #2D3039",
"x 	c #212330",
"y 	c #B9A998",
"z 	c #BDB2AC",
"A 	c #A1A3AD",
"B 	c #9E9EA1",
"C 	c #A0A1A2",
"D 	c #ECE3D9",
"E 	c #96928E",
"F 	c #161C2E",
"G 	c #D5B584",
"H 	c #685650",
"I 	c #857763",
"J 	c #DFD1AA",
"K 	c #F4ECCC",
"L 	c #EFE3C6",
"M 	c #EDE0C5",
"N 	c #E8D6A7",
"O 	c #C3B287",
"P 	c #847057",
"Q 	c #E5D3BC",
"R 	c #AEA9A3",
"S 	c #222331",
"T 	c #8F7566",
"U 	c #C9AB7F",
"V 	c #E9D8A3",
"W 	c #F1E5B7",
"X 	c #F5ECCD",
"Y 	c #FBF7EC",
"Z 	c #FDFCFA",
"` 	c #F0E6CF",
" .	c #D3BC8C",
"..	c #383336",
"+.	c #C8BDB0",
"@.	c #FCFBF5",
"#.	c #959174",
"$.	c #5A4B48",
"%.	c #9A7E6C",
"&.	c #D4B482",
"*.	c #E1CA97",
"=.	c #EDDDA7",
"-.	c #EFE1AB",
";.	c #EFE2AE",
">.	c #CFC8B1",
",.	c #AB9774",
"'.	c #ECDCA8",
").	c #8A7C61",
"!.	c #CFB894",
"~.	c #F7F5E6",
"{.	c #ECE1C4",
"].	c #94906F",
"^.	c #6B5851",
"/.	c #AE9173",
"(.	c #D5B583",
"_.	c #E1C996",
":.	c #EAD9A4",
"<.	c #F8F1DD",
"[.	c #D5D4D3",
"}.	c #564B41",
"|.	c #E3D0AD",
"1.	c #B0A27F",
"2.	c #D1CEC7",
"3.	c #ECE1C5",
"4.	c #DAC290",
"5.	c #827E63",
"6.	c #242431",
"7.	c #7E675C",
"8.	c #BC9E79",
"9.	c #E7D39F",
"0.	c #F1E6BB",
"a.	c #D0CDC2",
"b.	c #202230",
"c.	c #BDA278",
"d.	c #CAC1A7",
"e.	c #181D2E",
"f.	c #666452",
"g.	c #ECE5B6",
"h.	c #D8BC89",
"i.	c #A99570",
"j.	c #917B5D",
"k.	c #786751",
"l.	c #504343",
"m.	c #997E6A",
"n.	c #C9AA7E",
"o.	c #BEA276",
"p.	c #89755A",
"q.	c #8E8366",
"r.	c #969180",
"s.	c #64656A",
"t.	c #272731",
"u.	c #383739",
"v.	c #B8B388",
"w.	c #DFCC97",
"x.	c #D2B382",
"y.	c #5B4F43",
"z.	c #172031",
"A.	c #2B3D48",
"B.	c #AE946D",
"C.	c #877358",
"D.	c #4E4142",
"E.	c #A0836E",
"F.	c #D3B382",
"G.	c #D8BA88",
"H.	c #DBC998",
"I.	c #B8AE86",
"J.	c #948C6F",
"K.	c #828079",
"L.	c #171D2F",
"M.	c #6F604D",
"N.	c #DBCDA5",
"O.	c #625D4F",
"P.	c #CFC997",
"Q.	c #B69B72",
"R.	c #A68D69",
"S.	c #192838",
"T.	c #3D8394",
"U.	c #3A6B79",
"V.	c #A39072",
"W.	c #8C755E",
"X.	c #433B3C",
"Y.	c #1C1F2F",
"Z.	c #9B7E6C",
"`.	c #CFAF80",
" +	c #E4CF9B",
".+	c #F7F4EA",
"++	c #393A43",
"@+	c #C3AD8D",
"#+	c #F3EAC9",
"$+	c #958C6E",
"%+	c #B7B287",
"&+	c #9B8F71",
"*+	c #CFB080",
"=+	c #3D8496",
"-+	c #3E8698",
";+	c #748A8C",
">+	c #B29672",
",+	c #B0966F",
"'+	c #B4A279",
")+	c #978C6D",
"!+	c #7F725E",
"~+	c #C9AB7C",
"{+	c #D9BB89",
"]+	c #EFE0AA",
"^+	c #F1E9C9",
"/+	c #696058",
"(+	c #E3CE9C",
"_+	c #EADBA7",
":+	c #594F44",
"<+	c #326263",
"[+	c #294F53",
"}+	c #5F5245",
"|+	c #C4B385",
"1+	c #A38A69",
"2+	c #A58D69",
"3+	c #46929D",
"4+	c #8C9E95",
"5+	c #D3B483",
"6+	c #B29870",
"7+	c #7A6A53",
"8+	c #AFA37B",
"9+	c #887B5F",
"0+	c #B2976F",
"a+	c #EEE0AA",
"b+	c #F1E5B9",
"c+	c #F7F3E4",
"d+	c #EAD9A5",
"e+	c #B1A27C",
"f+	c #26464C",
"g+	c #3B797F",
"h+	c #3A757C",
"i+	c #A48C68",
"j+	c #74634F",
"k+	c #B99D75",
"l+	c #428C9A",
"m+	c #8DBBA9",
"n+	c #E8DEA6",
"o+	c #D8BB88",
"p+	c #D2B281",
"q+	c #908667",
"r+	c #847258",
"s+	c #1E263C",
"t+	c #181D2F",
"u+	c #574C42",
"v+	c #B9AE86",
"w+	c #E8D9AD",
"x+	c #F1E7C0",
"y+	c #C2B58A",
"z+	c #373E57",
"A+	c #34676B",
"B+	c #4B999B",
"C+	c #2C404B",
"D+	c #A08865",
"E+	c #6A5851",
"F+	c #776257",
"G+	c #2E2E36",
"H+	c #969B8E",
"I+	c #488897",
"J+	c #569EA1",
"K+	c #DECC98",
"L+	c #E0CC96",
"M+	c #967F63",
"N+	c #837056",
"O+	c #354C69",
"P+	c #395974",
"Q+	c #2E3A57",
"R+	c #20273D",
"S+	c #343337",
"T+	c #7B755E",
"U+	c #313A52",
"V+	c #3F5D7C",
"W+	c #253149",
"X+	c #316978",
"Y+	c #3A7D8E",
"Z+	c #2D475E",
"`+	c #4E4244",
" @	c #3F3C4C",
".@	c #29495C",
"+@	c #353135",
"@@	c #D0BD91",
"#@	c #A1BBA5",
"$@	c #D2B585",
"%@	c #D5B684",
"&@	c #AA8F70",
"*@	c #364F6B",
"=@	c #3E8094",
"-@	c #3F778D",
";@	c #3F5779",
">@	c #323E5E",
",@	c #2E3957",
"'@	c #3F5F7E",
")@	c #1B1F30",
"!@	c #735E55",
"~@	c #575657",
"{@	c #325169",
"]@	c #3B486D",
"^@	c #212941",
"/@	c #294055",
"(@	c #172132",
"_@	c #BEA176",
":@	c #DDC692",
"<@	c #E7DFA7",
"[@	c #71A09D",
"}@	c #A9A48D",
"|@	c #D0B282",
"1@	c #A58A6C",
"2@	c #364C6A",
"3@	c #3F7B90",
"4@	c #3E8597",
"5@	c #3F728A",
"6@	c #3F6B86",
"7@	c #346176",
"8@	c #232331",
"9@	c #A68A70",
"0@	c #8D785D",
"a@	c #23293E",
"b@	c #313C5B",
"c@	c #1F273D",
"d@	c #947E5F",
"e@	c #D8C18E",
"f@	c #5CA7A5",
"g@	c #4B9AA1",
"h@	c #628C94",
"i@	c #716053",
"j@	c #806E55",
"k@	c #364365",
"l@	c #35566F",
"m@	c #355D74",
"n@	c #2D4F63",
"o@	c #172032",
"p@	c #1B1F2F",
"q@	c #88715F",
"r@	c #C7A87D",
"s@	c #C6A87B",
"t@	c #282832",
"u@	c #2D2B33",
"v@	c #B0966E",
"w@	c #8A9892",
"x@	c #3E8798",
"y@	c #695953",
"z@	c #504443",
"A@	c #242D46",
"B@	c #2C344F",
"C@	c #272632",
"D@	c #292832",
"E@	c #B3A78B",
"F@	c #435E69",
"G@	c #5C4C49",
"H@	c #181E31",
"I@	c #858476",
"J@	c #445F69",
"K@	c #4D4141",
"L@	c #383138",
"                                                                                                                                ",
"                                                                                                                                ",
"                                                                                                                                ",
"                                                                                                                                ",
"                                                                                                                                ",
"                                                                                                                                ",
"                                                                                                                                ",
"                                                                                                                                ",
"                                                                                                                                ",
"                                                                                                                                ",
"                                                                                                                                ",
"                                                                                                                                ",
"                                                                                                                                ",
"                                                                                                                                ",
"                                                                                                                                ",
"                                                                                                                                ",
"                                                    . + @                                                                       ",
"                                                  # $ % & * = -                                                                 ",
"                                                ; > , ' ) ! ~ & {                                                               ",
"                                                ] ^ / ( _ : < [ } |                                                             ",
"                                                1 2 3 4 5 6 & 7 8 9                                                             ",
"                                                0 ^ a b c d e f g h                                                             ",
"                                                i j k l c ; m n o p                                                             ",
"                                                    i q r s t u v w                                                             ",
"                                                      x y z A B C D E F                     G                                   ",
"                                                    F H I J K L M N O P                   Q R                                   ",
"                                                    S T U V W X Y Z `  ...              +.@.#.                                  ",
"                                                    $.%.&.*.=.-.;.>.,.'.).            !.~.{.].                                  ",
"                                                  F ^./.(.(._.:.<.[.}.|.1.            2.3.4.5.                                  ",
"                                          6.      F 7.8.(.(.(.9.0.a.b.c.d.e.        f.g.h.i.                                    ",
"                                        F j.k.    F l.m.n.o.p.q.r.s.F t.u.e.        v.w.x.y.                                    ",
"                                        z.A.B.C.e.F D.E.F.G.H.I.J.K.L.M.N.O.      f.P.Q.R.                                      ",
"                                        S.T.U.V.W.X.Y.7.Z.`.(. +W .+++@+#+$+      %+&+*+y.                                      ",
"                                        S.=+-+;+>+,+'+)+!+~+(.{+]+^+/+(+_+:+<+[+}+|+1+2+                                        ",
"                                        S.=+3+4+5+6+7+8+9+M.0+5+a+b+c+d+e+f+g+h+i+j+k+y.                                        ",
"                                        S.=+l+m+n+o+p+q+r+s+t+u+v+w+x+y+z+A+B+C+D+E+F+e.                                        ",
"                                        G+H+I+J+K+L+F.M+N+O+P+Q+R+S+T+U+V+W+X+Y+Z+`+ @.@                                        ",
"                                        +@x.@@#@$@%@&.&@N+*@=@-@;@>@,@'@O+)@!@~@{@]@^@/@(@                                      ",
"                                        6._@:@<@[@}@|@1@N+2@3@-+4@5@6@7@z.8@9@p+0@a@b@c@                                        ",
"                                          d@(.e@f@g@h@i@j@,@k@l@m@m@n@o@  p@q@r@s@t@                                            ",
"                                          u@v@(.w@x@=+y@z@F F F F F F     A@B@C@D@                                              ",
"                                            u@v@E@4@F@G@  F F   F F       H@A@                                                  ",
"                                              u@I@J@K@    F F   F F                                                             ",
"                                                z.L@                                                                            ",
"                                                                                                                                ",
"                                                                                                                                ",
"                                                                                                                                ",
"                                                                                                                                ",
"                                                                                                                                ",
"                                                                                                                                ",
"                                                                                                                                ",
"                                                                                                                                ",
"                                                                                                                                ",
"                                                                                                                                ",
"                                                                                                                                ",
"                                                                                                                                ",
"                                                                                                                                ",
"                                                                                                                                ",
"                                                                                                                                ",
"                                                                                                                                ",
"                                                                                                                                ",
"                                                                                                                                ",
"                                                                                                                                ",
"                                                                                                                                "};
