/* XPM */
static char * P5_xpm[] = {
"64 64 337 2",
"  	c None",
". 	c #214150",
"+ 	c #356E78",
"@ 	c #39706F",
"# 	c #2B5356",
"$ 	c #172233",
"% 	c #2E616F",
"& 	c #56ADA9",
"* 	c #52A7A6",
"= 	c #51A5A4",
"- 	c #4D9B98",
"; 	c #3B7678",
"> 	c #171E30",
", 	c #356478",
"' 	c #49979F",
") 	c #58AFAA",
"! 	c #5AB2AC",
"~ 	c #54AAA7",
"{ 	c #52A6A6",
"] 	c #57AFAA",
"^ 	c #3B797F",
"/ 	c #243048",
"( 	c #3E7B90",
"_ 	c #3F8492",
": 	c #386F6F",
"< 	c #3F7D7B",
"[ 	c #55A9A3",
"} 	c #52A6A5",
"| 	c #468C89",
"1 	c #58B0A9",
"2 	c #30626A",
"3 	c #324964",
"4 	c #3E7F93",
"5 	c #2E4860",
"6 	c #323D5D",
"7 	c #1F273D",
"8 	c #274A4F",
"9 	c #4A9695",
"0 	c #4F9F9D",
"a 	c #407F7D",
"b 	c #3D7E85",
"c 	c #2D455D",
"d 	c #3F6A85",
"e 	c #404F75",
"f 	c #3C496E",
"g 	c #243D4F",
"h 	c #458794",
"i 	c #396C7B",
"j 	c #36506C",
"k 	c #181F32",
"l 	c #324763",
"m 	c #3C4C70",
"n 	c #364365",
"o 	c #2A3450",
"p 	c #182435",
"q 	c #376A7F",
"r 	c #35697C",
"s 	c #2A4358",
"t 	c #181E32",
"u 	c #171D2E",
"v 	c #544744",
"w 	c #5F4F4B",
"x 	c #29344F",
"y 	c #253B4F",
"z 	c #2F4C5D",
"A 	c #82735F",
"B 	c #383941",
"C 	c #262531",
"D 	c #B0A496",
"E 	c #D9CEC3",
"F 	c #D6D7D9",
"G 	c #D5D4D4",
"H 	c #F0E7DC",
"I 	c #98938D",
"J 	c #212330",
"K 	c #DBC19B",
"L 	c #C4A77C",
"M 	c #161C2E",
"N 	c #7D665B",
"O 	c #A89371",
"P 	c #E3D5A3",
"Q 	c #F0E2AF",
"R 	c #EBDBAB",
"S 	c #EEE1C6",
"T 	c #F3EACA",
"U 	c #E2CE9D",
"V 	c #A58D68",
"W 	c #DBC29E",
"X 	c #F5F1E9",
"Y 	c #434347",
"Z 	c #3D353A",
"` 	c #977B6A",
" .	c #CEAF80",
"..	c #E7D49F",
"+.	c #F1E4B6",
"@.	c #F4EBCA",
"#.	c #F6EFD6",
"$.	c #EFECE3",
"%.	c #E7DFCA",
"&.	c #E4D19D",
"*.	c #625547",
"=.	c #95876A",
"-.	c #F8F6F2",
";.	c #F2EED4",
">.	c #3A3B3B",
",.	c #514444",
"'.	c #A0846E",
").	c #D4B483",
"!.	c #DBC08E",
"~.	c #ECDCA6",
"{.	c #EFE1AB",
"].	c #F1E5B9",
"^.	c #D1CDC0",
"/.	c #947F60",
"(.	c #ECDEB8",
"_.	c #8F8569",
":.	c #E7D9B8",
"<.	c #F5EFE7",
"[.	c #E1D19C",
"}.	c #AF9274",
"|.	c #D5B583",
"1.	c #D9BB89",
"2.	c #D2CEC4",
"3.	c #322E34",
"4.	c #D9BF90",
"5.	c #C4B9A0",
"6.	c #68665A",
"7.	c #F4F0DA",
"8.	c #DCC29A",
"9.	c #BDB084",
"0.	c #4F453E",
"a.	c #2D2B33",
"b.	c #BB9D78",
"c.	c #D3B482",
"d.	c #D2B382",
"e.	c #F0E5BF",
"f.	c #C3C3C2",
"g.	c #978162",
"h.	c #A79E7D",
"i.	c #B8B388",
"j.	c #E3D29D",
"k.	c #5C5145",
"l.	c #534840",
"m.	c #AE946D",
"n.	c #615446",
"o.	c #3F363B",
"p.	c #927767",
"q.	c #C9AA7E",
"r.	c #C3A97C",
"s.	c #847B62",
"t.	c #3C3B3B",
"u.	c #33343B",
"v.	c #232836",
"w.	c #202230",
"x.	c #7B745F",
"y.	c #232632",
"z.	c #666452",
"A.	c #DDD6A1",
"B.	c #D5B684",
"C.	c #A68D69",
"D.	c #285362",
"E.	c #585955",
"F.	c #BB9F74",
"G.	c #5A4E43",
"H.	c #9E826D",
"I.	c #C3A47B",
"J.	c #D0B182",
"K.	c #E0C995",
"L.	c #DECF9D",
"M.	c #CAC19E",
"N.	c #C1BFBA",
"O.	c #EADAAF",
"P.	c #7F7860",
"Q.	c #B8B287",
"R.	c #9B8F6F",
"S.	c #D1B181",
"T.	c #5B4F43",
"U.	c #347081",
"V.	c #3D8496",
"W.	c #67797A",
"X.	c #A78C6F",
"Y.	c #947D62",
"Z.	c #564B41",
"`.	c #61504B",
" +	c #E1CA96",
".+	c #EFE2AD",
"++	c #F5EFDB",
"@+	c #3E3D44",
"#+	c #D2BC98",
"$+	c #F1E7C7",
"%+	c #8E8367",
"&+	c #5E5447",
"*+	c #D8CE9C",
"=+	c #9E8766",
"-+	c #3E8798",
";+	c #478898",
">+	c #BDA57F",
",+	c #988161",
"'+	c #AB9B74",
")+	c #B9AB80",
"!+	c #A7A17B",
"~+	c #957F60",
"{+	c #D6B785",
"]+	c #EEE0AA",
"^+	c #F1E6C1",
"/+	c #B0ABA5",
"(+	c #E9D8A4",
"_+	c #E1D3A1",
":+	c #31373C",
"<+	c #49918E",
"[+	c #213E4A",
"}+	c #A58D69",
"|+	c #84775E",
"1+	c #C6A87B",
"2+	c #428C9A",
"3+	c #56A1A2",
"4+	c #DBC693",
"5+	c #D6B987",
"6+	c #BDA075",
"7+	c #625748",
"8+	c #B39D75",
"9+	c #262631",
"0+	c #837056",
"a+	c #BEA277",
"b+	c #EDDFA9",
"c+	c #F2E8C0",
"d+	c #F8F1DD",
"e+	c #E5D39F",
"f+	c #8B7C61",
"g+	c #3D7C7F",
"h+	c #31646C",
"i+	c #5A615F",
"j+	c #BA9E74",
"k+	c #6D5A51",
"l+	c #9C8465",
"m+	c #397180",
"n+	c #3E8698",
"o+	c #509EA2",
"p+	c #D3D6A7",
"q+	c #DCC48F",
"r+	c #89755A",
"s+	c #B29C74",
"t+	c #1E273C",
"u+	c #202331",
"v+	c #C2B288",
"w+	c #E0D4A3",
"x+	c #958C6F",
"y+	c #354263",
"z+	c #3E7E81",
"A+	c #428A94",
"B+	c #535654",
"C+	c #564A42",
"D+	c #8B7164",
"E+	c #3E363B",
"F+	c #A49173",
"G+	c #999D8F",
"H+	c #4D8F9B",
"I+	c #BDBA97",
"J+	c #E2D09A",
"K+	c #9F8568",
"L+	c #AF956E",
"M+	c #294056",
"N+	c #3E7089",
"O+	c #395170",
"P+	c #2E3856",
"Q+	c #191F32",
"R+	c #2B2D36",
"S+	c #354364",
"T+	c #3F5C7C",
"U+	c #202A40",
"V+	c #315F6D",
"W+	c #3A778A",
"X+	c #282C3F",
"Y+	c #2D3956",
"Z+	c #2D5567",
"`+	c #B1976F",
" @	c #D8BC89",
".@	c #DFDDAA",
"+@	c #B0B396",
"@@	c #D3B484",
"#@	c #B09374",
"$@	c #B0966F",
"%@	c #3E8194",
"&@	c #3E8597",
"*@	c #3F6B86",
"=@	c #39486A",
"-@	c #3E6E87",
";@	c #2A3752",
">@	c #4F4242",
",@	c #977D69",
"'@	c #7A6956",
")@	c #2E3A57",
"!@	c #384568",
"~@	c #29334F",
"{@	c #182133",
"]@	c #847057",
"^@	c #E3D29B",
"/@	c #9DBEA7",
"(@	c #6B9D9D",
"_@	c #AAA78F",
":@	c #957E64",
"<@	c #293550",
"[@	c #3E8094",
"}@	c #3E758B",
"|@	c #2A4459",
"1@	c #5C4C49",
"2@	c #C2A47B",
"3@	c #8D785D",
"4@	c #242D46",
"5@	c #C8AA7B",
"6@	c #D5B683",
"7@	c #9CA393",
"8@	c #428B9A",
"9@	c #355763",
"0@	c #917962",
"a@	c #1E253B",
"b@	c #293751",
"c@	c #1F2A3F",
"d@	c #202232",
"e@	c #806A5A",
"f@	c #AB916D",
"g@	c #5C4F44",
"h@	c #C8AA7C",
"i@	c #BFAC88",
"j@	c #428798",
"k@	c #5F6366",
"l@	c #5D4D49",
"m@	c #313C5B",
"n@	c #C6A97D",
"o@	c #488796",
"p@	c #2E5765",
"q@	c #4E4242",
"r@	c #171D30",
"s@	c #564D45",
"t@	c #325663",
"u@	c #66544F",
"v@	c #171C2E",
"                                                                                                                                ",
"                                                                                                                                ",
"                                                                                                                                ",
"                                                                                                                                ",
"                                                                                                                                ",
"                                                                                                                                ",
"                                                                                                                                ",
"                                                                                                                                ",
"                                                                                                                                ",
"                                                                                                                                ",
"                                                                                                                                ",
"                                                                                                                                ",
"                                                                                                                                ",
"                                                                                                                                ",
"                                                                                                                                ",
"                                                                                                                                ",
"                                                    . + @ #                                                                     ",
"                                                  $ % & * = - ;                                                                 ",
"                                                > , ' ) ! ~ { ] ^                                                               ",
"                                                / ( _ : < [ } | 1 2                                                             ",
"                                                3 4 5 6 7 8 9 0 a b                                                             ",
"                                                c ( d e f > g h i j                                                             ",
"                                                k l m n o   p q r s                                                             ",
"                                                    t u v w x y z A B                                                           ",
"                                                      C D E F G G H I J                   K L                                   ",
"                                                    M N O P Q R S T U V                 W X Y                                   ",
"                                                    Z `  ...+.@.#.$.%.&.*.            =.-.;.>.                                  ",
"                                                    ,.'.).!.~.{.].^./.(._.            :.<.[.>.                                  ",
"                                                  M N }.|.|.1...#.2.3.4.5.          6.7.8.9.                                    ",
"                                          0.a.    M N b.).c.d.&.e.f.u g.h.M         i.j.d.k.                                    ",
"                                          l.m.n.  M o.p.q.r.s.t.u.v.M w.x.y.      z.A.B.C.                                      ",
"                                          D.E.F.G.u Z H.I.J.K.L.M.N.v./.O.P.      Q.R.S.T.                                      ",
"                                          U.V.W.X.Y.Z.`.` d.|. +.+++@+#+$+%+    &+*+=+C.                                        ",
"                                          U.-+;+>+,+'+)+!+~+|.{+]+^+/+(+_+:+<+[+}+|+1+T.                                        ",
"                                          U.2+3+4+5+6+7+8+9+0+a+b+c+d+e+f+g+h+i+j+k+l+                                          ",
"                                          m+n+o+p+q+|.r+s+t+7 u+P.v+w+x+y+z+A+B+C+D+E+                                          ",
"                                          F+G+H+I+J+B.K+L+M+N+O+P+Q+R+S+T+U+V+W+3 X+Y+Z+                                        ",
"                                          `+ @.@+@@@|.#@$@M+%@&@*@m =@-@;@>@,@'@)@!@~@{@                                        ",
"                                          ]@B.^@/@(@_@:@L+<@*@[@&@4 }@|@M 1@2@c.3@k 4@                                          ",
"                                          3.5@6@7@' 8@9@0@a@~@<@b@b@c@M   d@e@f@0+                                              ",
"                                            g@h@i@j@&@k@l@M M   M M M     m@4@M                                                 ",
"                                              g@n@o@p@q@  M M   M M       r@>                                                   ",
"                                                s@t@u@    M M   M M                                                             ",
"                                                  v@                                                                            ",
"                                                                                                                                ",
"                                                                                                                                ",
"                                                                                                                                ",
"                                                                                                                                ",
"                                                                                                                                ",
"                                                                                                                                ",
"                                                                                                                                ",
"                                                                                                                                ",
"                                                                                                                                ",
"                                                                                                                                ",
"                                                                                                                                ",
"                                                                                                                                ",
"                                                                                                                                ",
"                                                                                                                                ",
"                                                                                                                                ",
"                                                                                                                                ",
"                                                                                                                                ",
"                                                                                                                                ",
"                                                                                                                                ",
"                                                                                                                                "};
